# Wavefront OBJ file
# Creator: Ultimate Unwrap3D Pro v3.26
# Website: http://www.unwrap3d.com
# Time: Thu Nov 04 20:22:42 2010
# num_vertices: 60
# num_vertex_normals: 60
# num_uvs: 238
# num_faces: 59
# num_groups: 1

mtllib door_connector_corridor_place your doorway or doorframe within this.mtl

v -101.502998 0.000015 -51.981522
v -101.502998 0.000015 54.587494
v -101.502998 103.056313 -51.981522
v -101.502998 103.056313 54.587494
v -101.502998 272.920319 -51.981522
v -101.502998 272.920319 54.587494
v -91.815002 9.688118 -42.293518
v -91.815002 9.688118 26.064484
v -91.815002 9.688118 54.587494
v -91.815002 103.056313 -42.293518
v -91.815002 103.056313 24.047485
v -91.815002 103.056313 54.587494
v -91.815002 263.232330 -42.293518
v -91.815002 263.232330 24.047485
v -91.815002 263.232330 54.587494
v -78.990601 9.688118 26.064484
v -78.990601 9.688118 54.587494
v -78.990601 103.056313 24.047485
v -78.990601 103.056313 54.587494
v -78.990601 263.232330 24.047485
v -78.990601 263.232330 54.587494
v -29.928600 0.000000 -51.981522
v -29.928600 0.000015 54.587494
v -29.928600 9.688118 -42.293518
v -29.928600 9.688118 26.064484
v -29.928600 9.688118 54.587494
v -29.861300 103.350319 -51.981522
v -29.861300 103.350319 -42.293518
v -29.861300 263.232330 -42.293518
v -29.861300 272.920319 -51.981522
v 30.942699 0.000031 -51.981522
v 30.942699 0.000015 54.587494
v 30.942699 9.688118 -42.293518
v 30.942699 9.688118 26.064484
v 30.942699 9.688118 54.587494
v 31.226999 102.685318 -51.981522
v 31.226999 102.685318 -42.293518
v 31.718000 263.232330 -42.293518
v 31.718000 272.920319 -51.981522
v 76.177299 9.688118 29.530487
v 76.177299 9.688118 54.587494
v 76.177299 102.685318 29.530487
v 76.177299 102.685318 54.587494
v 76.177299 263.232330 29.530487
v 76.177299 263.232330 54.587494
v 91.814697 9.688118 -42.293518
v 91.814697 9.688118 29.530487
v 91.814697 9.688118 54.587494
v 91.814697 102.685318 -42.293518
v 91.814697 102.685318 29.530487
v 91.814697 102.685318 54.587494
v 91.814697 263.232330 -42.293518
v 91.814697 263.232330 29.530487
v 91.814697 263.232330 54.587494
v 101.502998 0.000015 -51.981522
v 101.502998 0.000031 54.587494
v 101.502998 102.685318 -51.981522
v 101.502998 102.685318 54.587494
v 101.502998 272.920319 -51.981522
v 101.502998 272.920319 54.587494
# num_vertices: 60

vn -0.577350 -0.577350 -0.577350
vn -0.408248 -0.408248 0.816497
vn -0.707107 0.000000 -0.707107
vn -0.707107 0.000000 0.707107
vn -0.577350 0.577350 -0.577350
vn -0.408248 0.408248 0.816497
vn 0.577350 0.577350 0.577350
vn 0.581552 0.568992 -0.581416
vn 0.000000 0.000000 1.000000
vn 0.707107 0.000000 0.707107
vn 0.707127 -0.007636 -0.707045
vn 0.000000 0.000000 1.000000
vn 0.577350 -0.577350 0.577350
vn 0.577350 -0.577350 -0.577350
vn 0.000000 0.000000 1.000000
vn 0.573238 -0.585619 -0.573104
vn 0.577350 -0.577350 0.577350
vn 0.707127 -0.007636 -0.707045
vn 0.707107 0.000000 0.707107
vn 0.577350 0.577350 -0.577350
vn 0.577350 0.577350 0.577350
vn 0.423134 -0.547344 -0.722061
vn 0.000000 -0.707107 0.707107
vn 0.344806 0.933201 0.101215
vn 0.000000 1.000000 0.000000
vn 0.000000 0.707107 0.707107
vn 0.298560 -0.302025 -0.905341
vn 0.298454 -0.301917 0.905412
vn 0.000000 -0.447214 0.894427
vn 0.000000 0.447214 -0.894427
vn -0.423384 -0.546221 -0.722765
vn 0.000000 -0.707107 0.707107
vn -0.344434 0.933375 0.100882
vn 0.000000 1.000000 0.000000
vn 0.000000 0.707107 0.707107
vn -0.304568 -0.300437 -0.903867
vn -0.304568 -0.300437 0.903867
vn 0.000000 -0.447214 0.894427
vn 0.000000 0.316228 -0.948683
vn -0.577350 -0.577350 -0.577350
vn -0.577350 -0.577350 0.577350
vn -0.707107 0.000000 -0.707107
vn -0.707107 0.000000 0.707107
vn -0.577350 0.577350 -0.577350
vn -0.577350 0.577350 0.577350
vn -0.577350 0.577350 0.577350
vn -0.577350 0.577350 -0.577350
vn 0.000000 0.000000 1.000000
vn -0.707107 0.000000 0.707107
vn -0.707107 0.000000 -0.707107
vn 0.000000 0.000000 1.000000
vn -0.577350 -0.577350 0.577350
vn -0.577350 -0.577350 -0.577350
vn 0.000000 0.000000 1.000000
vn 0.577350 -0.577350 -0.577350
vn 0.408248 -0.408248 0.816496
vn 0.554700 0.000000 -0.832050
vn 0.707107 0.000000 0.707107
vn 0.577350 0.577350 -0.577350
vn 0.408248 0.408248 0.816497
# num_vertex_normals: 60

vt 0.490598 0.375466
vt 0.300380 0.374325
vt 0.300380 0.011942
vt 0.490391 0.011942
vt 0.678159 0.372885
vt 0.677286 0.011942
vt 0.864182 0.011942
vt 0.864182 0.372885
vt 0.490598 0.996004
vt 0.300380 0.996004
vt 0.300380 0.374325
vt 0.490598 0.375466
vt 0.864182 0.996004
vt 0.679666 0.996004
vt 0.678159 0.372885
vt 0.864182 0.372885
vt 0.679666 0.996004
vt 0.490598 0.996004
vt 0.490598 0.375466
vt 0.678159 0.372885
vt 1.000000 0.237522
vt 1.000000 0.762478
vt 0.656242 0.762478
vt 0.352904 0.762478
vt -0.000000 0.762478
vt -0.000000 0.237522
vt 0.730180 0.531317
vt 0.730180 0.531317
vt 0.730180 0.531317
vt 0.730180 0.531317
vt 0.730180 0.531317
vt 0.730180 0.531317
vt 0.730180 0.531317
vt 0.730180 0.531317
vt 0.730180 0.531317
vt 0.730180 0.531317
vt 0.730180 0.531317
vt 0.730180 0.531317
vt 0.390339 0.000000
vt 0.128086 0.000000
vt 0.128086 0.377606
vt 0.390586 0.378683
vt 0.304762 0.377606
vt 0.695238 0.377606
vt 0.695238 0.000000
vt 0.304762 0.000000
vt 0.304762 0.377606
vt 0.304762 1.000000
vt 0.695238 1.000000
vt 0.695238 0.377606
vt 0.304762 0.376246
vt 0.695238 0.376246
vt 0.695238 1.000000
vt 0.304762 1.000000
vt 0.304762 0.376246
vt 0.304762 0.000000
vt 0.695238 0.000000
vt 0.695238 0.376246
vt 0.871914 0.376247
vt 0.871914 0.000000
vt 0.613376 0.000000
vt 0.614418 0.376247
vt 0.390586 0.378683
vt 0.128086 0.377606
vt 0.128086 1.000000
vt 0.390586 1.000000
vt 0.871914 1.000000
vt 0.871914 0.376247
vt 0.616217 1.000000
vt 0.871914 0.376247
vt 0.614418 0.376247
vt 0.616217 1.000000
vt 0.614418 0.376247
vt 0.390586 0.378683
vt 0.390586 1.000000
vt 0.616217 1.000000
vt 0.128086 0.000000
vt 0.390339 0.000000
vt 0.390339 0.035498
vt 0.163583 0.035498
vt 0.128086 0.377606
vt 0.128086 0.000000
vt 0.163583 0.035498
vt 0.163583 0.377606
vt 0.871914 1.000000
vt 0.128086 1.000000
vt 0.163583 0.964502
vt 0.836416 0.964502
vt 0.128086 1.000000
vt 0.128086 0.377606
vt 0.163583 0.377606
vt 0.163583 0.964502
vt 0.871914 0.376247
vt 0.871914 1.000000
vt 0.836416 0.964502
vt 0.836416 0.376247
vt 0.613376 0.000000
vt 0.871914 0.000000
vt 0.836416 0.035498
vt 0.613376 0.035498
vt 0.871914 0.000000
vt 0.871914 0.376247
vt 0.836416 0.376247
vt 0.836416 0.035498
vt 0.309389 0.149858
vt 0.309389 0.994847
vt 0.230180 0.994847
vt 0.230180 0.229068
vt 0.730724 0.067788
vt 1.230180 0.067788
vt 1.230180 0.146996
vt 0.730724 0.146996
vt 0.230180 0.067787
vt 0.727862 0.067787
vt 0.727862 0.146996
vt 0.230180 0.146996
vt 0.312250 0.994847
vt 0.312250 0.155295
vt 0.391459 0.234505
vt 0.391459 0.994847
vt 0.390339 0.000000
vt 0.613376 0.000000
vt 0.613376 0.035498
vt 0.390339 0.035498
vt 1.084706 0.996004
vt 0.864182 0.996004
vt 0.864182 0.372885
vt 1.084706 0.372885
vt 1.084706 0.372885
vt 0.864182 0.372885
vt 0.864182 0.011942
vt 1.084706 0.011942
vt 0.477681 1.945731
vt 0.482036 1.212904
vt 0.592504 1.194404
vt 0.588149 1.927231
vt 0.096691 0.374325
vt 0.300380 0.374325
vt 0.300380 0.996004
vt 0.096691 0.996004
vt 0.686953 1.130160
vt 0.791535 1.130563
vt 0.798250 1.895679
vt 0.686358 1.895789
vt 0.090498 0.011942
vt 0.300380 0.011942
vt 0.300380 0.374325
vt 0.096691 0.374325
vt 0.589053 3.192360
vt 0.478585 3.210860
vt 0.477681 1.945731
vt 0.588149 1.927231
vt 0.798250 1.895679
vt 0.798992 3.208215
vt 0.687082 3.208524
vt 0.686358 1.895789
vt 0.000000 0.236206
vt 0.000000 0.402519
vt 1.000000 0.372660
vt 1.000000 0.236206
vt 0.000000 0.402519
vt 0.000000 0.763794
vt 0.337384 0.763794
vt 0.672729 0.763794
vt 1.000000 0.763794
vt 1.000000 0.372660
vt 0.210573 0.035498
vt 0.210573 0.377606
vt 0.163583 0.377606
vt 0.163583 0.035498
vt 0.730180 0.531317
vt 0.730180 0.531317
vt 0.730180 0.531317
vt 0.730180 0.531317
vt 0.210573 0.377606
vt 0.210573 0.964502
vt 0.163583 0.964502
vt 0.163583 0.377606
vt 0.730180 0.531317
vt 0.730180 0.531317
vt 0.730180 0.531317
vt 0.730180 0.531317
vt 0.798250 1.895679
vt 0.791535 1.130563
vt 0.838599 1.128523
vt 0.845234 1.895056
vt 0.798992 3.208215
vt 0.798250 1.895679
vt 0.845234 1.895056
vt 0.845995 3.208080
vt 0.779119 0.964502
vt 0.779119 0.376247
vt 0.836416 0.376247
vt 0.836416 0.964502
vt 0.730180 0.531317
vt 0.730180 0.531317
vt 0.730180 0.531317
vt 0.730180 0.531317
vt 0.779119 0.376247
vt 0.779119 0.035498
vt 0.836416 0.035498
vt 0.836416 0.376247
vt 0.779119 0.035498
vt 0.779119 0.035498
vt 0.836416 0.035498
vt 0.836416 0.035498
vt 0.477681 1.945731
vt 0.478585 3.210860
vt 0.409645 3.222405
vt 0.408741 1.957277
vt 0.482036 1.212904
vt 0.477681 1.945731
vt 0.408741 1.957277
vt 0.413096 1.224449
vt 0.294642 0.265677
vt 0.294642 0.734725
vt -0.130000 0.734725
vt -0.130000 0.265677
vt 0.712319 0.265677
vt 0.294642 0.265677
vt 0.294642 0.069963
vt 0.712319 0.069963
vt 0.712319 0.265677
vt 0.712319 0.734725
vt 0.294642 0.734725
vt 0.294642 0.265677
vt 1.130000 0.069963
vt 1.130000 0.241895
vt 0.712319 0.265677
vt 0.712319 0.069963
vt 1.130000 0.241895
vt 1.130000 0.734725
vt 0.712319 0.734725
vt 0.712319 0.265677
vt 0.294642 0.265677
vt -0.130000 0.265677
vt -0.130000 0.069963
vt 0.294642 0.069963
# num_uvs: 238

g Form31
s 1

usemtl StoneTiled
f 28/1/28 10/2/10 7/3/7 24/4/24 
f 37/5/37 33/6/33 46/7/46 49/8/49 
f 29/9/29 13/10/13 10/11/10 28/12/28 
f 52/13/52 38/14/38 37/15/37 49/16/49 
f 38/17/38 29/18/29 28/19/28 37/20/37 
f 60/21/60 59/22/59 39/23/39 30/24/30 5/25/5 6/26/6 
f 23/27/23 2/28/2 1/29/1 22/30/22 
f 32/31/32 31/32/31 55/33/55 56/34/56 
f 32/35/32 23/36/23 22/37/22 31/38/31 
f 22/39/22 1/40/1 3/41/3 27/42/27 
f 4/43/4 3/44/3 1/45/1 2/46/2 
f 4/47/4 6/48/6 5/49/5 3/50/3 
f 58/51/58 57/52/57 59/53/59 60/54/60 
f 58/55/58 56/56/56 55/57/55 57/58/57 
f 57/59/57 55/60/55 31/61/31 36/62/36 
f 27/63/27 3/64/3 5/65/5 30/66/30 
f 59/67/59 57/68/57 39/69/39 
f 57/70/57 36/71/36 39/72/39 
f 36/73/36 27/74/27 30/75/30 39/76/39 
f 2/77/2 23/78/23 26/79/26 9/80/9 
f 4/81/4 2/82/2 9/83/9 12/84/12 
f 60/85/60 6/86/6 15/87/15 54/88/54 
f 6/89/6 4/90/4 12/91/12 15/92/15 
f 58/93/58 60/94/60 54/95/54 51/96/51 
f 32/97/32 56/98/56 48/99/48 35/100/35 
f 56/101/56 58/102/58 51/103/51 48/104/48 
f 22/105/22 27/106/27 28/107/28 24/108/24 
f 27/109/27 36/110/36 37/111/37 28/112/28 
f 31/113/31 22/114/22 24/115/24 33/116/33 
f 36/117/36 31/118/31 33/119/33 37/120/37 
f 23/121/23 32/122/32 35/123/35 26/124/26 
f 53/125/53 52/126/52 49/127/49 50/128/50 
f 50/129/50 49/130/49 46/131/46 47/132/47 
f 42/133/42 40/134/40 41/135/41 43/136/43 
f 11/137/11 10/138/10 13/139/13 14/140/14 
f 17/141/17 16/142/16 18/143/18 19/144/19 
f 8/145/8 7/146/7 10/147/10 11/148/11 
f 45/149/45 44/150/44 42/151/42 43/152/43 
f 18/153/18 20/154/20 21/155/21 19/156/19 
f 15/157/15 14/158/14 53/159/53 54/160/54 
f 14/161/14 13/162/13 29/163/29 38/164/38 52/165/52 53/166/53 
f 17/167/17 19/168/19 12/169/12 9/170/9 
f 16/171/16 17/172/17 9/173/9 8/174/8 
f 19/175/19 21/176/21 15/177/15 12/178/12 
f 21/179/21 20/180/20 14/181/14 15/182/15 
f 18/183/18 16/184/16 8/185/8 11/186/11 
f 20/187/20 18/188/18 11/189/11 14/190/14 
f 45/191/45 43/192/43 51/193/51 54/194/54 
f 44/195/44 45/196/45 54/197/54 53/198/53 
f 43/199/43 41/200/41 48/201/48 51/202/51 
f 41/203/41 40/204/40 47/205/47 48/206/48 
f 42/207/42 44/208/44 53/209/53 50/210/50 
f 40/211/40 42/212/42 50/213/50 47/214/47 
usemtl MonFloor
f 25/215/25 24/216/24 7/217/7 8/218/8 
f 34/219/34 25/220/25 26/221/26 35/222/35 
f 34/223/34 33/224/33 24/225/24 25/226/25 
f 48/227/48 47/228/47 34/229/34 35/230/35 
f 47/231/47 46/232/46 33/233/33 34/234/34 
f 25/235/25 8/236/8 9/237/9 26/238/26 
# num_faces: 59

