# Wavefront OBJ file
# Creator: Ultimate Unwrap3D Pro v3.26
# Website: http://www.unwrap3d.com
# Time: Thu Nov 04 20:24:36 2010
# num_vertices: 31
# num_vertex_normals: 31
# num_uvs: 118
# num_faces: 30
# num_groups: 1

mtllib mondoorA.mtl

v -7.479500 0.000000 -30.121490
v -7.479500 0.000000 30.121521
v -7.479500 94.304001 -30.121490
v -7.479500 94.304001 -10.539490
v -7.479500 94.304001 0.226532
v -7.479500 94.304001 10.992523
v -7.479500 94.304001 30.121521
v 1.697899 0.000000 -20.560486
v 1.697899 0.000000 -10.305481
v 1.697899 0.000000 0.459534
v 1.697899 0.000000 11.225525
v 1.697899 0.000000 20.559509
v 1.697899 84.720001 -20.560486
v 1.697899 84.720001 -10.305481
v 1.697899 84.720001 0.459534
v 1.697899 84.720001 11.225525
v 1.697899 84.720001 20.559509
v 7.479500 0.000000 -30.121490
v 7.479500 0.000000 -20.560486
v 7.479500 0.000000 20.559509
v 7.479500 0.000000 30.121521
v 7.479500 84.720001 -20.560486
v 7.479500 84.720001 -10.305481
v 7.479500 84.720001 0.459534
v 7.479500 84.720001 11.225525
v 7.479500 84.720001 20.559509
v 7.479500 94.304001 -30.121490
v 7.479500 94.304001 -10.539490
v 7.479500 94.304001 0.226532
v 7.479500 94.304001 10.992523
v 7.479500 94.304001 30.121521
# num_vertices: 31

vn -0.192450 -0.962250 -0.192450
vn -0.408248 -0.816497 0.408248
vn -0.577350 0.577350 -0.577350
vn -0.447214 0.894427 0.000000
vn 0.000000 1.000000 0.000000
vn -0.447214 0.894427 0.000000
vn -0.577350 0.577350 0.577350
vn 0.408248 -0.816497 0.408248
vn 0.707107 -0.707107 0.000000
vn 0.707107 -0.707107 0.000000
vn 0.707107 -0.707107 0.000000
vn 0.408248 -0.816497 -0.408248
vn 0.577350 -0.577350 0.577350
vn 0.707107 -0.707107 0.000000
vn 0.707107 -0.707107 0.000000
vn 0.707107 -0.707107 0.000000
vn 0.577350 -0.577350 -0.577350
vn 0.577350 -0.577350 -0.577350
vn 0.577350 -0.577350 0.577350
vn 0.577350 -0.577350 -0.577350
vn 0.577350 -0.577350 0.577350
vn 0.816497 -0.408248 0.408248
vn 0.707107 -0.707107 0.000000
vn 0.707107 -0.707107 0.000000
vn 0.707107 -0.707107 0.000000
vn 0.816497 -0.408248 -0.408248
vn 0.816497 0.408248 -0.408248
vn 0.707107 0.707107 0.000000
vn 0.707107 0.707107 0.000000
vn 0.707107 0.707107 0.000000
vn 0.816497 0.408248 0.408248
# num_vertex_normals: 31

vt 0.730180 0.531317
vt 0.730327 0.118392
vt 0.829379 0.118407
vt 0.829233 0.531333
vt 0.828453 0.906132
vt 0.830541 0.467282
vt 0.740507 0.467026
vt 0.738418 0.905876
vt 0.682750 0.511462
vt 0.680874 0.905712
vt 0.738418 0.905876
vt 0.740507 0.467026
vt 0.730180 0.531317
vt 0.666864 0.531308
vt 0.666996 0.160347
vt 0.730327 0.118392
vt 0.777195 0.082631
vt 0.778158 0.230002
vt 0.630136 0.230589
vt 0.629172 0.083218
vt 0.778158 0.230002
vt 0.778701 0.312943
vt 0.630679 0.313530
vt 0.630136 0.230589
vt 0.778701 0.312943
vt 0.779243 0.395884
vt 0.631221 0.396471
vt 0.630679 0.313530
vt 0.779243 0.395884
vt 0.780230 0.546745
vt 0.632208 0.547332
vt 0.631221 0.396471
vt 0.294499 -0.106221
vt 0.294499 -0.106221
vt 0.294499 -0.106221
vt 0.294499 -0.106221
vt 0.294499 -0.106221
vt 0.294499 -0.106221
vt 0.294499 -0.106221
vt 0.291841 -0.115734
vt 0.294499 -0.106221
vt 0.526955 0.072488
vt 0.628316 0.072488
vt 0.628316 0.880168
vt 0.526955 0.880168
vt 0.628316 0.072488
vt 0.717937 0.072488
vt 0.717937 0.880168
vt 0.628316 0.880168
vt 0.717937 0.072488
vt 0.834837 0.072488
vt 0.834837 0.880168
vt 0.717937 0.880168
vt 0.834837 0.072488
vt 0.946199 0.072488
vt 0.946199 0.880168
vt 0.834837 0.880168
vt 0.784055 0.163724
vt 0.784525 0.235633
vt 0.704444 0.237804
vt 0.703480 0.090434
vt 0.784525 0.235633
vt 0.785068 0.318575
vt 0.704987 0.320746
vt 0.704444 0.237804
vt 0.785068 0.318575
vt 0.785610 0.401508
vt 0.705529 0.403687
vt 0.704987 0.320746
vt 0.785610 0.401508
vt 0.786127 0.480514
vt 0.706516 0.554548
vt 0.705529 0.403687
vt 0.680874 0.905712
vt 0.682750 0.511462
vt 0.647952 0.511363
vt 0.646075 0.905613
vt 0.786127 0.480514
vt 0.785610 0.401508
vt 0.842821 0.401281
vt 0.843337 0.480287
vt 0.666996 0.160347
vt 0.666864 0.531308
vt 0.628580 0.531302
vt 0.628712 0.160341
vt 0.784525 0.235633
vt 0.784055 0.163724
vt 0.841265 0.163497
vt 0.841735 0.235407
vt 0.785610 0.401508
vt 0.785068 0.318575
vt 0.842278 0.318348
vt 0.842821 0.401281
vt 0.785068 0.318575
vt 0.784525 0.235633
vt 0.841735 0.235407
vt 0.842278 0.318348
vt 0.291841 -0.115734
vt 0.291841 -0.115734
vt 0.294499 -0.106221
vt 0.291841 -0.115734
vt 0.291841 -0.115734
vt 0.294499 -0.106221
vt 0.294499 -0.106221
vt 0.291841 -0.115734
vt 0.291841 -0.115734
vt 0.291841 -0.115734
vt 0.291841 -0.115734
vt 0.294499 -0.106221
vt 0.294499 -0.106221
vt 0.291841 -0.115734
vt 0.291841 -0.115734
vt 0.294499 -0.106221
vt 0.291841 -0.115734
vt 0.291841 -0.115734
vt 0.294499 -0.106221
vt 0.291841 -0.115734
vt 0.291841 -0.115734
# num_uvs: 118

g MonDoorA
s 1

usemtl MonDoors
f 21/1/21 31/2/31 7/3/7 2/4/2 
f 1/5/1 3/6/3 27/7/27 18/8/18 
f 22/9/22 19/10/19 18/11/18 27/12/27 
f 21/13/21 20/14/20 26/15/26 31/16/31 
f 31/17/31 30/18/30 6/19/6 7/20/7 
f 30/21/30 29/22/29 5/23/5 6/24/6 
f 29/25/29 28/26/28 4/27/4 5/28/5 
f 28/29/28 27/30/27 3/31/3 4/32/4 
f 7/33/7 6/34/6 4/35/4 3/36/3 1/37/1 2/38/2 
f 6/39/6 5/40/5 4/41/4 
f 12/42/12 11/43/11 16/44/16 17/45/17 
f 11/46/11 10/47/10 15/48/15 16/49/16 
f 10/50/10 9/51/9 14/52/14 15/53/15 
f 9/54/9 8/55/8 13/56/13 14/57/14 
f 26/58/26 25/59/25 30/60/30 31/61/31 
f 25/62/25 24/63/24 29/64/29 30/65/30 
f 24/66/24 23/67/23 28/68/28 29/69/29 
f 23/70/23 22/71/22 27/72/27 28/73/28 
f 19/74/19 22/75/22 13/76/13 8/77/8 
f 22/78/22 23/79/23 14/80/14 13/81/13 
f 26/82/26 20/83/20 12/84/12 17/85/17 
f 25/86/25 26/87/26 17/88/17 16/89/16 
f 23/90/23 24/91/24 15/92/15 14/93/14 
f 24/94/24 25/95/25 16/96/16 15/97/15 
f 20/98/20 21/99/21 2/100/2 12/101/12 
f 12/102/12 2/103/2 1/104/1 11/105/11 
f 18/106/18 19/107/19 8/108/8 1/109/1 
f 1/110/1 8/111/8 9/112/9 
f 1/113/1 10/114/10 11/115/11 
f 1/116/1 9/117/9 10/118/10 
# num_faces: 30

