# Wavefront OBJ file
# Creator: Ultimate Unwrap3D Pro v3.26
# Website: http://www.unwrap3d.com
# Time: Thu Nov 04 20:24:58 2010
# num_vertices: 31
# num_vertex_normals: 31
# num_uvs: 118
# num_faces: 30
# num_groups: 1

mtllib mondoorB.mtl

v -7.479500 0.000000 -30.121490
v -7.479500 0.000000 30.121521
v -7.479500 94.304001 -30.121490
v -7.479500 94.304001 -10.539490
v -7.479500 94.304001 0.226532
v -7.479500 94.304001 10.992523
v -7.479500 94.304001 30.121521
v 1.697899 0.000000 -20.560486
v 1.697899 0.000000 -10.305481
v 1.697899 0.000000 0.459534
v 1.697899 0.000000 11.225525
v 1.697899 0.000000 20.559509
v 1.697899 84.720001 -20.560486
v 1.697899 84.720001 -10.305481
v 1.697899 84.720001 0.459534
v 1.697899 84.720001 11.225525
v 1.697899 84.720001 20.559509
v 7.479500 0.000000 -30.121490
v 7.479500 0.000000 -20.560486
v 7.479500 0.000000 20.559509
v 7.479500 0.000000 30.121521
v 7.479500 84.720001 -20.560486
v 7.479500 84.720001 -10.305481
v 7.479500 84.720001 0.459534
v 7.479500 84.720001 11.225525
v 7.479500 84.720001 20.559509
v 7.479500 94.304001 -30.121490
v 7.479500 94.304001 -10.539490
v 7.479500 94.304001 0.226532
v 7.479500 94.304001 10.992523
v 7.479500 94.304001 30.121521
# num_vertices: 31

vn -0.192450 -0.962250 -0.192450
vn -0.408248 -0.816497 0.408248
vn -0.577350 0.577350 -0.577350
vn -0.447214 0.894427 0.000000
vn 0.000000 1.000000 0.000000
vn -0.447214 0.894427 0.000000
vn -0.577350 0.577350 0.577350
vn 0.408248 -0.816497 0.408248
vn 0.707107 -0.707107 0.000000
vn 0.707107 -0.707107 0.000000
vn 0.707107 -0.707107 0.000000
vn 0.408248 -0.816497 -0.408248
vn 0.577350 -0.577350 0.577350
vn 0.707107 -0.707107 0.000000
vn 0.707107 -0.707107 0.000000
vn 0.707107 -0.707107 0.000000
vn 0.577350 -0.577350 -0.577350
vn 0.577350 -0.577350 -0.577350
vn 0.577350 -0.577350 0.577350
vn 0.577350 -0.577350 -0.577350
vn 0.577350 -0.577350 0.577350
vn 0.816497 -0.408248 0.408248
vn 0.707107 -0.707107 0.000000
vn 0.707107 -0.707107 0.000000
vn 0.707107 -0.707107 0.000000
vn 0.816497 -0.408248 -0.408248
vn 0.816497 0.408248 -0.408248
vn 0.707107 0.707107 0.000000
vn 0.707107 0.707107 0.000000
vn 0.707107 0.707107 0.000000
vn 0.816497 0.408248 0.408248
# num_vertex_normals: 31

vt 0.675565 0.580415
vt 0.675689 0.177094
vt 0.759239 0.177109
vt 0.759115 0.580430
vt 0.758457 0.946511
vt 0.760219 0.517869
vt 0.684276 0.517619
vt 0.682514 0.946261
vt 0.635559 0.561021
vt 0.633976 0.946101
vt 0.682514 0.946261
vt 0.684276 0.517619
vt 0.675565 0.580415
vt 0.622159 0.580405
vt 0.622270 0.218073
vt 0.675689 0.177094
vt 0.715222 0.142165
vt 0.716035 0.286108
vt 0.591180 0.286681
vt 0.590367 0.142739
vt 0.716035 0.286108
vt 0.716492 0.367120
vt 0.591638 0.367693
vt 0.591180 0.286681
vt 0.716492 0.367120
vt 0.716950 0.448132
vt 0.592095 0.448706
vt 0.591638 0.367693
vt 0.716950 0.448132
vt 0.717782 0.595484
vt 0.592928 0.596057
vt 0.592095 0.448706
vt 0.740662 0.820158
vt 0.740662 0.820158
vt 0.740662 0.820158
vt 0.740662 0.820158
vt 0.740662 0.820158
vt 0.740662 0.820158
vt 0.740662 0.820158
vt 0.725251 0.823852
vt 0.740662 0.820158
vt 0.026099 0.237835
vt 0.127460 0.237835
vt 0.127460 0.989329
vt 0.026099 0.989329
vt 0.127460 0.237835
vt 0.217081 0.237835
vt 0.217081 0.989329
vt 0.127460 0.989329
vt 0.217081 0.237835
vt 0.333982 0.237835
vt 0.333982 0.989329
vt 0.217081 0.989329
vt 0.333982 0.237835
vt 0.445343 0.237835
vt 0.445343 0.989329
vt 0.333982 0.989329
vt 0.721008 0.221372
vt 0.721405 0.291608
vt 0.653858 0.293729
vt 0.653045 0.149787
vt 0.721405 0.291608
vt 0.721863 0.372621
vt 0.654315 0.374741
vt 0.653858 0.293729
vt 0.721863 0.372621
vt 0.722320 0.453626
vt 0.654773 0.455754
vt 0.654315 0.374741
vt 0.722320 0.453626
vt 0.722756 0.530793
vt 0.655605 0.603105
vt 0.654773 0.455754
vt 0.633976 0.946101
vt 0.635559 0.561021
vt 0.606208 0.560925
vt 0.604625 0.946004
vt 0.722756 0.530793
vt 0.722320 0.453626
vt 0.770576 0.453404
vt 0.771012 0.530572
vt 0.622270 0.218073
vt 0.622159 0.580405
vt 0.589867 0.580400
vt 0.589979 0.218067
vt 0.721405 0.291608
vt 0.721008 0.221372
vt 0.769264 0.221150
vt 0.769661 0.291387
vt 0.722320 0.453626
vt 0.721863 0.372621
vt 0.770119 0.372399
vt 0.770576 0.453404
vt 0.721863 0.372621
vt 0.721405 0.291608
vt 0.769661 0.291387
vt 0.770119 0.372399
vt 0.725251 0.823852
vt 0.725251 0.823852
vt 0.740662 0.820158
vt 0.725251 0.823852
vt 0.725251 0.823852
vt 0.740662 0.820158
vt 0.740662 0.820158
vt 0.725251 0.823852
vt 0.725251 0.823852
vt 0.725251 0.823852
vt 0.725251 0.823852
vt 0.740662 0.820158
vt 0.740662 0.820158
vt 0.725251 0.823852
vt 0.725251 0.823852
vt 0.740662 0.820158
vt 0.725251 0.823852
vt 0.725251 0.823852
vt 0.740662 0.820158
vt 0.725251 0.823852
vt 0.725251 0.823852
# num_uvs: 118

g MonDoorA
s 1

usemtl MonDoors
f 21/1/21 31/2/31 7/3/7 2/4/2 
f 1/5/1 3/6/3 27/7/27 18/8/18 
f 22/9/22 19/10/19 18/11/18 27/12/27 
f 21/13/21 20/14/20 26/15/26 31/16/31 
f 31/17/31 30/18/30 6/19/6 7/20/7 
f 30/21/30 29/22/29 5/23/5 6/24/6 
f 29/25/29 28/26/28 4/27/4 5/28/5 
f 28/29/28 27/30/27 3/31/3 4/32/4 
f 7/33/7 6/34/6 4/35/4 3/36/3 1/37/1 2/38/2 
f 6/39/6 5/40/5 4/41/4 
f 12/42/12 11/43/11 16/44/16 17/45/17 
f 11/46/11 10/47/10 15/48/15 16/49/16 
f 10/50/10 9/51/9 14/52/14 15/53/15 
f 9/54/9 8/55/8 13/56/13 14/57/14 
f 26/58/26 25/59/25 30/60/30 31/61/31 
f 25/62/25 24/63/24 29/64/29 30/65/30 
f 24/66/24 23/67/23 28/68/28 29/69/29 
f 23/70/23 22/71/22 27/72/27 28/73/28 
f 19/74/19 22/75/22 13/76/13 8/77/8 
f 22/78/22 23/79/23 14/80/14 13/81/13 
f 26/82/26 20/83/20 12/84/12 17/85/17 
f 25/86/25 26/87/26 17/88/17 16/89/16 
f 23/90/23 24/91/24 15/92/15 14/93/14 
f 24/94/24 25/95/25 16/96/16 15/97/15 
f 20/98/20 21/99/21 2/100/2 12/101/12 
f 12/102/12 2/103/2 1/104/1 11/105/11 
f 18/106/18 19/107/19 8/108/8 1/109/1 
f 1/110/1 8/111/8 9/112/9 
f 1/113/1 10/114/10 11/115/11 
f 1/116/1 9/117/9 10/118/10 
# num_faces: 30

