# Wavefront OBJ file
# Creator: Ultimate Unwrap3D Pro v3.22
# Website: http://www.unwrap3d.com
# Time: Thu Feb 18 16:01:24 2010
# num_vertices: 32
# num_vertex_normals: 32
# num_uvs: 104
# num_faces: 22
# num_groups: 1

mtllib furniture4.mtl

v -0.302635 1.199893 -0.263650
v -0.302635 1.199893 0.263650
v 0.302635 1.199893 0.263650
v 0.302635 1.199893 -0.263650
v -0.302635 -0.000000 -0.263650
v 0.302635 -0.000000 -0.263650
v -0.226135 1.117493 0.263650
v -0.302635 1.117493 0.263650
v -0.302635 0.576383 0.263650
v -0.226135 0.576383 0.263650
v 0.302635 1.117493 0.263650
v 0.215055 1.117493 0.263650
v 0.302635 0.576383 0.263650
v 0.215055 0.576383 0.263650
v 0.215055 1.117493 0.243750
v -0.226135 1.117493 0.243750
v -0.226135 0.576383 0.243750
v 0.215055 0.576383 0.243750
v 0.302635 0.503339 0.263650
v 0.302635 -0.000000 0.263650
v -0.302635 -0.000000 0.263650
v -0.302635 0.503339 0.263650
v 0.209085 -0.000000 0.263650
v -0.213655 -0.000000 0.263650
v -0.213655 0.503339 0.263650
v 0.209085 0.503339 0.263650
v 0.209085 0.065224 0.263650
v 0.209085 0.503339 0.243750
v -0.213655 0.503339 0.243750
v -0.213655 0.065224 0.243750
v 0.209085 0.065224 0.243750
v -0.213655 0.065224 0.263650
# num_vertices: 32

vn -0.577350 0.577350 -0.577350
vn -0.577350 0.577350 0.577350
vn 0.577350 0.577350 0.577350
vn 0.577350 0.577350 -0.577350
vn -0.577350 -0.577350 -0.577350
vn 0.577350 -0.577350 -0.577350
vn 0.408248 -0.408248 0.816497
vn -0.447214 0.000000 0.894427
vn -0.447214 0.000000 0.894427
vn 0.408248 0.408248 0.816497
vn 0.447214 0.000000 0.894427
vn -0.408248 -0.408248 0.816497
vn 0.447214 0.000000 0.894427
vn -0.408248 0.408248 0.816497
vn -0.577350 -0.577350 0.577350
vn 0.577350 -0.577350 0.577350
vn 0.577350 0.577350 0.577350
vn -0.577350 0.577350 0.577350
vn 0.447214 0.000000 0.894427
vn 0.577350 -0.577350 0.577350
vn -0.577350 -0.577350 0.577350
vn -0.447214 0.000000 0.894427
vn 0.000000 -0.447214 0.894427
vn 0.000000 -0.447214 0.894427
vn 0.408248 -0.408248 0.816497
vn -0.408248 -0.408248 0.816497
vn -0.408248 0.408248 0.816497
vn -0.577350 -0.577350 0.577350
vn 0.577350 -0.577350 0.577350
vn 0.577350 0.577350 0.577350
vn -0.577350 0.577350 0.577350
vn 0.408248 0.408248 0.816497
# num_vertex_normals: 32

vt 0.352583 0.165002
vt 0.352583 0.045324
vt 0.421369 0.045324
vt 0.421369 0.165002
vt 0.350117 0.009010
vt 0.350117 0.200404
vt 0.419687 0.200404
vt 0.419687 0.009010
vt 0.192417 0.212546
vt 0.180867 0.210118
vt 0.180536 0.108608
vt 0.192655 0.109075
vt 0.285187 0.210029
vt 0.286200 0.222567
vt 0.179848 0.222630
vt 0.180867 0.210118
vt 0.192417 0.212546
vt 0.270421 0.212080
vt 0.285532 0.108560
vt 0.285187 0.210029
vt 0.270421 0.212080
vt 0.270166 0.108483
vt 0.270963 0.210167
vt 0.192276 0.209778
vt 0.192218 0.106561
vt 0.271122 0.107095
vt 0.414683 0.205987
vt 0.353462 0.205987
vt 0.353462 0.192515
vt 0.353462 0.104045
vt 0.353462 0.092103
vt 0.353462 0.009809
vt 0.414683 0.009809
vt 0.414683 0.009809
vt 0.353462 0.009809
vt 0.353462 0.092103
vt 0.353462 0.104045
vt 0.353462 0.192515
vt 0.353462 0.205987
vt 0.414683 0.205987
vt 0.421369 0.165002
vt 0.421369 0.045324
vt 0.410738 0.045324
vt 0.362695 0.045324
vt 0.352583 0.045324
vt 0.352583 0.165002
vt 0.285805 0.099886
vt 0.285532 0.108560
vt 0.270166 0.108483
vt 0.192655 0.109075
vt 0.180536 0.108608
vt 0.180259 0.099825
vt 0.194998 0.101685
vt 0.269190 0.101732
vt 0.283608 0.001983
vt 0.285805 0.099886
vt 0.269190 0.101732
vt 0.269510 0.015644
vt 0.269261 0.002623
vt 0.269897 0.100011
vt 0.194214 0.100016
vt 0.194435 0.014483
vt 0.269672 0.014582
vt 0.194647 0.015673
vt 0.194934 0.002597
vt 0.269261 0.002623
vt 0.269510 0.015644
vt 0.194998 0.101685
vt 0.180259 0.099825
vt 0.182480 0.001977
vt 0.194934 0.002597
vt 0.194647 0.015673
vt 0.192417 0.212546
vt 0.192655 0.109075
vt 0.192218 0.106561
vt 0.192276 0.209778
vt 0.270421 0.212080
vt 0.192417 0.212546
vt 0.192276 0.209778
vt 0.270963 0.210167
vt 0.192655 0.109075
vt 0.270166 0.108483
vt 0.271122 0.107095
vt 0.192218 0.106561
vt 0.270166 0.108483
vt 0.270421 0.212080
vt 0.270963 0.210167
vt 0.271122 0.107095
vt 0.269190 0.101732
vt 0.194998 0.101685
vt 0.194214 0.100016
vt 0.269897 0.100011
vt 0.269510 0.015644
vt 0.269190 0.101732
vt 0.269897 0.100011
vt 0.269672 0.014582
vt 0.194998 0.101685
vt 0.194647 0.015673
vt 0.194435 0.014483
vt 0.194214 0.100016
vt 0.194647 0.015673
vt 0.269510 0.015644
vt 0.269672 0.014582
vt 0.194435 0.014483
# num_uvs: 104

g furniture4
s 1

usemtl interior_props_1
f 1/1/1 2/2/2 3/3/3 4/4/4 
f 5/5/5 1/6/1 4/7/4 6/8/6 
f 7/9/7 8/10/8 9/11/9 10/12/10 
f 11/13/11 3/14/3 2/15/2 8/16/8 7/17/7 12/18/12 
f 13/19/13 11/20/11 12/21/12 14/22/14 
f 15/23/15 16/24/16 17/25/17 18/26/18 
f 4/27/4 3/28/3 11/29/11 13/30/13 19/31/19 20/32/20 6/33/6 
f 5/34/5 21/35/21 22/36/22 9/37/9 8/38/8 2/39/2 1/40/1 
f 6/41/6 20/42/20 23/43/23 24/44/24 21/45/21 5/46/5 
f 19/47/19 13/48/13 14/49/14 10/50/10 9/51/9 22/52/22 25/53/25 26/54/26 
f 20/55/20 19/56/19 26/57/26 27/58/27 23/59/23 
f 28/60/28 29/61/29 30/62/30 31/63/31 
f 32/64/32 24/65/24 23/66/23 27/67/27 
f 25/68/25 22/69/22 21/70/21 24/71/24 32/72/32 
f 7/73/7 10/74/10 17/75/17 16/76/16 
f 12/77/12 7/78/7 16/79/16 15/80/15 
f 10/81/10 14/82/14 18/83/18 17/84/17 
f 14/85/14 12/86/12 15/87/15 18/88/18 
f 26/89/26 25/90/25 29/91/29 28/92/28 
f 27/93/27 26/94/26 28/95/28 31/96/31 
f 25/97/25 32/98/32 30/99/30 29/100/29 
f 32/101/32 27/102/27 31/103/31 30/104/30 
# num_faces: 22

