# Wavefront OBJ file
# Creator: Ultimate Unwrap3D Pro v3.22
# Website: http://www.unwrap3d.com
# Time: Thu Feb 18 16:04:42 2010
# num_vertices: 56
# num_vertex_normals: 56
# num_uvs: 216
# num_faces: 54
# num_groups: 1

mtllib openbook.mtl

v 0.234860 0.006000 -0.153108
v 0.234860 0.016600 -0.153108
v 0.234860 0.016600 0.153108
v 0.234860 0.006000 0.153108
v -0.234860 0.006000 0.153108
v -0.234860 0.016600 0.153108
v -0.234860 0.016600 -0.153108
v -0.234860 0.006000 -0.153108
v -0.127860 0.026690 -0.153108
v -0.127860 0.016090 -0.153108
v 0.127690 0.026690 -0.153108
v 0.127690 0.016090 -0.153108
v 0.127690 0.026690 0.153108
v 0.127690 0.016090 0.153108
v -0.127860 0.026690 0.153108
v -0.127860 0.016090 0.153108
v -0.070190 0.023640 -0.153108
v -0.070190 0.013040 -0.153108
v -0.000100 0.010600 -0.153108
v -0.000100 0.000000 -0.153108
v -0.000100 0.010600 0.153108
v -0.070190 0.023640 0.153108
v -0.070190 0.013040 0.153108
v -0.000100 0.000000 0.153108
v 0.069360 0.024530 -0.153108
v 0.069360 0.013920 -0.153108
v 0.069360 0.024530 0.153108
v 0.069360 0.013920 0.153108
v 0.227200 0.017320 -0.143238
v 0.227200 0.017320 0.143236
v -0.227200 0.017320 0.143236
v -0.227200 0.017320 -0.143238
v -0.070190 0.023640 -0.143238
v -0.000100 0.010600 -0.143238
v -0.070160 0.043780 -0.143238
v -0.070160 0.043780 0.143236
v -0.000070 0.030740 0.143236
v -0.000070 0.030740 -0.143238
v -0.070190 0.023640 0.143236
v -0.000100 0.010600 0.143236
v -0.127860 0.026690 -0.143238
v -0.127830 0.046830 -0.143238
v -0.127830 0.046830 0.143236
v -0.127860 0.026690 0.143236
v 0.069360 0.024530 -0.143238
v 0.127690 0.026690 -0.143238
v 0.069390 0.044660 -0.143238
v 0.069390 0.044660 0.143236
v 0.127720 0.046830 0.143236
v 0.127720 0.046830 -0.143238
v 0.069360 0.024530 0.143236
v 0.127690 0.026690 0.143236
v -0.196870 0.036080 -0.143238
v -0.196870 0.036080 0.143236
v 0.194170 0.035340 0.143236
v 0.194170 0.035340 -0.143238
# num_vertices: 56

vn 0.540389 -0.593656 -0.596282
vn 0.470267 0.788677 -0.396028
vn 0.470267 0.788677 0.396028
vn 0.540389 -0.593656 0.596282
vn -0.540330 -0.593679 0.596313
vn -0.470323 0.788667 0.395980
vn -0.470305 0.788637 -0.396062
vn -0.540330 -0.593679 -0.596313
vn -0.014539 0.706002 -0.708060
vn 0.014540 -0.706002 -0.708060
vn 0.020079 0.706086 -0.707841
vn -0.020018 -0.706063 -0.707866
vn 0.020079 0.706086 0.707841
vn -0.020018 -0.706063 0.707866
vn -0.014540 0.706046 0.708017
vn 0.014540 -0.706002 0.708060
vn 0.083430 0.701402 -0.707866
vn -0.083429 -0.701402 -0.707867
vn -0.004897 0.700577 -0.713561
vn 0.004848 -0.700582 -0.713556
vn -0.004897 0.700576 0.713561
vn 0.083430 0.701402 0.707866
vn -0.083429 -0.701402 0.707867
vn 0.004848 -0.700582 0.713556
vn -0.082737 0.701095 -0.708251
vn 0.082749 -0.701098 -0.708247
vn -0.082737 0.701095 0.708251
vn 0.082749 -0.701098 0.708247
vn 0.214189 0.922384 -0.321451
vn 0.214189 0.922384 0.321451
vn -0.230475 0.917926 0.322946
vn -0.230469 0.917902 -0.323017
vn 0.083430 0.701402 -0.707866
vn -0.004897 0.700577 -0.713561
vn 0.083429 0.701402 -0.707867
vn 0.083429 0.701402 0.707867
vn -0.004848 0.700582 0.713556
vn -0.004848 0.700582 -0.713556
vn 0.083430 0.701402 0.707866
vn -0.004897 0.700576 0.713561
vn -0.014539 0.706002 -0.708060
vn -0.035819 0.704291 -0.709007
vn -0.035819 0.704291 0.709007
vn -0.014540 0.706046 0.708017
vn -0.082737 0.701095 -0.708251
vn 0.020079 0.706086 -0.707841
vn -0.082748 0.701098 -0.708247
vn -0.082748 0.701098 0.708247
vn 0.047224 0.703598 0.709027
vn 0.047224 0.703598 -0.709027
vn -0.082737 0.701095 0.708251
vn 0.020079 0.706086 0.707841
vn -0.308960 0.835488 -0.454427
vn -0.308960 0.835488 0.454427
vn 0.293531 0.842304 0.452066
vn 0.293531 0.842304 -0.452066
# num_vertex_normals: 56

vt 0.426783 0.017742
vt 0.427134 0.015072
vt 0.329161 0.015375
vt 0.329532 0.018042
vt 0.329887 0.018228
vt 0.329537 0.015556
vt 0.427509 0.015859
vt 0.427138 0.018528
vt 0.427138 0.018528
vt 0.427509 0.015859
vt 0.430598 0.049212
vt 0.427046 0.049267
vt 0.430517 0.048425
vt 0.427134 0.015072
vt 0.426783 0.017742
vt 0.426972 0.048495
vt 0.329532 0.018042
vt 0.329161 0.015375
vt 0.326076 0.048784
vt 0.329625 0.048829
vt 0.326076 0.048784
vt 0.329537 0.015556
vt 0.329887 0.018228
vt 0.329625 0.048829
vt 0.329887 0.018228
vt 0.427138 0.018528
vt 0.427046 0.049267
vt 0.329625 0.048829
vt 0.426972 0.048495
vt 0.426783 0.017742
vt 0.329532 0.018042
vt 0.329625 0.048829
vt 0.430598 0.049212
vt 0.430364 0.065477
vt 0.426974 0.065828
vt 0.427046 0.049267
vt 0.430364 0.065477
vt 0.430148 0.086279
vt 0.426864 0.086259
vt 0.426974 0.065828
vt 0.326200 0.085912
vt 0.326205 0.065081
vt 0.329592 0.065476
vt 0.329484 0.085899
vt 0.326205 0.065081
vt 0.326076 0.048784
vt 0.329625 0.048829
vt 0.329592 0.065476
vt 0.427046 0.049267
vt 0.426974 0.065828
vt 0.329592 0.065476
vt 0.329625 0.048829
vt 0.426974 0.065828
vt 0.426864 0.086259
vt 0.329484 0.085899
vt 0.329592 0.065476
vt 0.430470 0.085487
vt 0.430467 0.064817
vt 0.427079 0.065214
vt 0.427187 0.085508
vt 0.430467 0.064817
vt 0.430517 0.048425
vt 0.426972 0.048495
vt 0.427079 0.065214
vt 0.326076 0.048784
vt 0.326205 0.065081
vt 0.329592 0.065476
vt 0.329625 0.048829
vt 0.326205 0.065081
vt 0.326523 0.085854
vt 0.329806 0.085867
vt 0.329592 0.065476
vt 0.427187 0.085508
vt 0.427079 0.065214
vt 0.329592 0.065476
vt 0.329806 0.085867
vt 0.427079 0.065214
vt 0.426972 0.048495
vt 0.329625 0.048829
vt 0.329592 0.065476
vt 0.432547 0.124893
vt 0.431997 0.198211
vt 0.429996 0.195865
vt 0.430483 0.127218
vt 0.308421 0.197557
vt 0.308975 0.124221
vt 0.310976 0.126569
vt 0.310487 0.195230
vt 0.370265 0.202610
vt 0.352644 0.202610
vt 0.352641 0.200181
vt 0.370274 0.200319
vt 0.352090 0.195358
vt 0.352517 0.126899
vt 0.370719 0.126966
vt 0.370296 0.195476
vt 0.353067 0.122120
vt 0.353046 0.119691
vt 0.370691 0.119834
vt 0.370680 0.122125
vt 0.352644 0.202610
vt 0.336170 0.203033
vt 0.336567 0.200635
vt 0.352641 0.200181
vt 0.337351 0.195257
vt 0.337799 0.126844
vt 0.352517 0.126899
vt 0.352090 0.195358
vt 0.336833 0.122168
vt 0.336503 0.119755
vt 0.353046 0.119691
vt 0.353067 0.122120
vt 0.404547 0.202685
vt 0.387835 0.202744
vt 0.387815 0.200310
vt 0.404220 0.200280
vt 0.388383 0.195547
vt 0.388810 0.127080
vt 0.403709 0.127174
vt 0.403262 0.195609
vt 0.388240 0.122277
vt 0.388239 0.119843
vt 0.404867 0.119441
vt 0.404482 0.121851
vt 0.387835 0.202744
vt 0.370265 0.202610
vt 0.370274 0.200319
vt 0.387815 0.200310
vt 0.370296 0.195476
vt 0.370719 0.126966
vt 0.388810 0.127080
vt 0.388383 0.195547
vt 0.370680 0.122125
vt 0.370691 0.119834
vt 0.388239 0.119843
vt 0.388240 0.122277
vt 0.337799 0.126844
vt 0.337351 0.195257
vt 0.319576 0.195099
vt 0.320025 0.126821
vt 0.308975 0.124221
vt 0.336503 0.119755
vt 0.336833 0.122168
vt 0.310976 0.126569
vt 0.336170 0.203033
vt 0.308421 0.197557
vt 0.310487 0.195230
vt 0.336567 0.200635
vt 0.403262 0.195609
vt 0.403709 0.127174
vt 0.420876 0.127316
vt 0.420428 0.195642
vt 0.431997 0.198211
vt 0.404547 0.202685
vt 0.404220 0.200280
vt 0.429996 0.195865
vt 0.432547 0.124893
vt 0.430483 0.127218
vt 0.404482 0.121851
vt 0.404867 0.119441
vt 0.352641 0.200181
vt 0.336567 0.200635
vt 0.337351 0.195257
vt 0.352090 0.195358
vt 0.336567 0.200635
vt 0.310487 0.195230
vt 0.319576 0.195099
vt 0.337351 0.195257
vt 0.370274 0.200319
vt 0.352641 0.200181
vt 0.352090 0.195358
vt 0.370296 0.195476
vt 0.387815 0.200310
vt 0.370274 0.200319
vt 0.370296 0.195476
vt 0.388383 0.195547
vt 0.404220 0.200280
vt 0.387815 0.200310
vt 0.388383 0.195547
vt 0.403262 0.195609
vt 0.429996 0.195865
vt 0.404220 0.200280
vt 0.403262 0.195609
vt 0.420428 0.195642
vt 0.388240 0.122277
vt 0.404482 0.121851
vt 0.403709 0.127174
vt 0.388810 0.127080
vt 0.404482 0.121851
vt 0.430483 0.127218
vt 0.420876 0.127316
vt 0.403709 0.127174
vt 0.370680 0.122125
vt 0.388240 0.122277
vt 0.388810 0.127080
vt 0.370719 0.126966
vt 0.353067 0.122120
vt 0.370680 0.122125
vt 0.370719 0.126966
vt 0.352517 0.126899
vt 0.336833 0.122168
vt 0.353067 0.122120
vt 0.352517 0.126899
vt 0.337799 0.126844
vt 0.310976 0.126569
vt 0.336833 0.122168
vt 0.337799 0.126844
vt 0.320025 0.126821
vt 0.310487 0.195230
vt 0.310976 0.126569
vt 0.320025 0.126821
vt 0.319576 0.195099
vt 0.430483 0.127218
vt 0.429996 0.195865
vt 0.420428 0.195642
vt 0.420876 0.127316
# num_uvs: 216

g openbook
s 1

usemtl interior_props_2
f 1/1/1 2/2/2 3/3/3 4/4/4 
f 5/5/5 6/6/6 7/7/7 8/8/8 
f 8/9/8 7/10/7 9/11/9 10/12/10 
f 11/13/11 2/14/2 1/15/1 12/16/12 
f 4/17/4 3/18/3 13/19/13 14/20/14 
f 15/21/15 6/22/6 5/23/5 16/24/16 
f 5/25/5 8/26/8 10/27/10 16/28/16 
f 12/29/12 1/30/1 4/31/4 14/32/14 
f 9/33/9 17/34/17 18/35/18 10/36/10 
f 17/37/17 19/38/19 20/39/20 18/40/18 
f 21/41/21 22/42/22 23/43/23 24/44/24 
f 22/45/22 15/46/15 16/47/16 23/48/23 
f 10/49/10 18/50/18 23/51/23 16/52/16 
f 18/53/18 20/54/20 24/55/24 23/56/23 
f 19/57/19 25/58/25 26/59/26 20/60/20 
f 25/61/25 11/62/11 12/63/12 26/64/26 
f 13/65/13 27/66/27 28/67/28 14/68/14 
f 27/69/27 21/70/21 24/71/24 28/72/28 
f 20/73/20 26/74/26 28/75/28 24/76/24 
f 26/77/26 12/78/12 14/79/14 28/80/28 
f 3/81/3 2/82/2 29/83/29 30/84/30 
f 7/85/7 6/86/6 31/87/31 32/88/32 
f 19/89/19 17/90/17 33/91/33 34/92/34 
f 35/93/35 36/94/36 37/95/37 38/96/38 
f 39/97/39 22/98/22 21/99/21 40/100/40 
f 17/101/17 9/102/9 41/103/41 33/104/33 
f 42/105/42 43/106/43 36/107/36 35/108/35 
f 44/109/44 15/110/15 22/111/22 39/112/39 
f 11/113/11 25/114/25 45/115/45 46/116/46 
f 47/117/47 48/118/48 49/119/49 50/120/50 
f 51/121/51 27/122/27 13/123/13 52/124/52 
f 25/125/25 19/126/19 34/127/34 45/128/45 
f 38/129/38 37/130/37 48/131/48 47/132/47 
f 40/133/40 21/134/21 27/135/27 51/136/51 
f 43/137/43 42/138/42 53/139/53 54/140/54 
f 6/141/6 15/142/15 44/143/44 31/144/31 
f 9/145/9 7/146/7 32/147/32 41/148/41 
f 50/149/50 49/150/49 55/151/55 56/152/56 
f 2/153/2 11/154/11 46/155/46 29/156/29 
f 3/157/3 30/158/30 52/159/52 13/160/13 
f 33/161/33 41/162/41 42/163/42 35/164/35 
f 41/165/41 32/166/32 53/167/53 42/168/42 
f 34/169/34 33/170/33 35/171/35 38/172/38 
f 45/173/45 34/174/34 38/175/38 47/176/47 
f 46/177/46 45/178/45 47/179/47 50/180/50 
f 29/181/29 46/182/46 50/183/50 56/184/56 
f 51/185/51 52/186/52 49/187/49 48/188/48 
f 52/189/52 30/190/30 55/191/55 49/192/49 
f 40/193/40 51/194/51 48/195/48 37/196/37 
f 39/197/39 40/198/40 37/199/37 36/200/36 
f 44/201/44 39/202/39 36/203/36 43/204/43 
f 31/205/31 44/206/44 43/207/43 54/208/54 
f 32/209/32 31/210/31 54/211/54 53/212/53 
f 30/213/30 29/214/29 56/215/56 55/216/55 
# num_faces: 54

