# Wavefront OBJ file
# Creator: Ultimate Unwrap3D Pro v3.22
# Website: http://www.unwrap3d.com
# Time: Thu Feb 18 16:05:09 2010
# num_vertices: 36
# num_vertex_normals: 36
# num_uvs: 120
# num_faces: 26
# num_groups: 1

mtllib plate.mtl

v 0.214420 0.013800 0.000000
v 0.200660 0.000000 0.000000
v 0.173780 0.000000 -0.100330
v 0.185690 0.013800 -0.107210
v 0.100330 0.000000 -0.173777
v 0.107210 0.013800 -0.185693
v 0.000000 0.000000 -0.200659
v 0.000000 0.013800 -0.214419
v -0.100330 0.000000 -0.173777
v -0.107210 0.013800 -0.185693
v -0.173780 0.000000 -0.100330
v -0.185690 0.013800 -0.107210
v -0.200660 0.000000 0.000000
v -0.214420 0.013800 0.000000
v -0.173780 0.000000 0.100329
v -0.185690 0.013800 0.107210
v -0.100330 0.000000 0.173776
v -0.107210 0.013800 0.185693
v 0.000000 0.000000 0.200659
v 0.000000 0.013800 0.214419
v 0.100330 0.000000 0.173776
v 0.107210 0.013800 0.185693
v 0.173780 0.000000 0.100329
v 0.185690 0.013800 0.107210
v 0.152080 0.007830 -0.087803
v 0.087800 0.007830 -0.152081
v 0.000000 0.007830 -0.175607
v -0.087800 0.007830 -0.152081
v -0.152080 0.007830 -0.087803
v -0.175610 0.007830 0.000000
v -0.152080 0.007830 0.087803
v -0.087800 0.007830 0.152079
v 0.000000 0.007830 0.175606
v 0.087800 0.007830 0.152079
v 0.152080 0.007830 0.087803
v 0.175610 0.007830 0.000000
# num_vertices: 36

vn 0.879744 0.475449 0.000032
vn 0.503607 -0.863933 0.000014
vn 0.436120 -0.863940 -0.251808
vn 0.761878 0.475430 -0.439896
vn 0.251809 -0.863941 -0.436117
vn 0.439904 0.475433 -0.761871
vn 0.000001 -0.863969 -0.503545
vn 0.000002 0.475393 -0.879774
vn -0.251776 -0.863970 -0.436079
vn -0.439899 0.475392 -0.761900
vn -0.436146 -0.863930 -0.251796
vn -0.761898 0.475439 -0.439850
vn -0.503603 -0.863935 -0.000014
vn -0.879745 0.475446 -0.000032
vn -0.436111 -0.863946 0.251802
vn -0.761884 0.475422 0.439894
vn -0.251799 -0.863951 0.436103
vn -0.439904 0.475418 0.761880
vn 0.000001 -0.863974 0.503536
vn 0.000001 0.475382 0.879780
vn 0.251770 -0.863974 0.436074
vn 0.439898 0.475385 0.761905
vn 0.436142 -0.863933 0.251791
vn 0.761904 0.475433 0.439848
vn -0.087981 0.994826 0.050798
vn -0.050795 0.994826 0.087979
vn -0.000000 0.994827 0.101587
vn 0.050791 0.994827 0.087976
vn 0.087977 0.994827 0.050794
vn 0.101592 0.994826 -0.000000
vn 0.087981 0.994826 -0.050799
vn 0.050794 0.994827 -0.087976
vn -0.000001 0.994827 -0.101583
vn -0.050789 0.994827 -0.087974
vn -0.087974 0.994827 -0.050793
vn -0.101592 0.994826 0.000000
# num_vertex_normals: 36

vt 0.987150 0.623599
vt 0.983794 0.623599
vt 0.977238 0.648067
vt 0.980144 0.649745
vt 0.980144 0.649745
vt 0.977238 0.648067
vt 0.959326 0.665979
vt 0.961004 0.668885
vt 0.961004 0.668885
vt 0.959326 0.665979
vt 0.934858 0.672535
vt 0.934858 0.675891
vt 0.934858 0.675891
vt 0.934858 0.672535
vt 0.910390 0.665979
vt 0.908712 0.668885
vt 0.908712 0.668885
vt 0.910390 0.665979
vt 0.892478 0.648067
vt 0.889572 0.649745
vt 0.889572 0.649745
vt 0.892478 0.648067
vt 0.885922 0.623599
vt 0.882566 0.623599
vt 0.882566 0.623599
vt 0.885922 0.623599
vt 0.892478 0.599131
vt 0.889572 0.597453
vt 0.889572 0.597453
vt 0.892478 0.599131
vt 0.910390 0.581219
vt 0.908712 0.578313
vt 0.908712 0.578313
vt 0.910390 0.581219
vt 0.934858 0.574663
vt 0.934858 0.571307
vt 0.934858 0.571307
vt 0.934858 0.574663
vt 0.959326 0.581219
vt 0.961004 0.578313
vt 0.961004 0.578313
vt 0.959326 0.581219
vt 0.977238 0.599131
vt 0.980144 0.597453
vt 0.980144 0.597453
vt 0.977238 0.599131
vt 0.983794 0.623599
vt 0.987150 0.623599
vt 0.950383 0.603429
vt 0.940890 0.593935
vt 0.927922 0.590461
vt 0.914954 0.593935
vt 0.905461 0.603429
vt 0.901986 0.616397
vt 0.905461 0.629365
vt 0.914954 0.638858
vt 0.927922 0.642333
vt 0.940890 0.638858
vt 0.950383 0.629365
vt 0.953858 0.616397
vt 0.971947 0.645012
vt 0.980144 0.649745
vt 0.961004 0.668885
vt 0.956271 0.660688
vt 0.956271 0.660688
vt 0.961004 0.668885
vt 0.934858 0.675891
vt 0.934858 0.666425
vt 0.934858 0.666425
vt 0.934858 0.675891
vt 0.908712 0.668885
vt 0.913445 0.660688
vt 0.913445 0.660688
vt 0.908712 0.668885
vt 0.889572 0.649745
vt 0.897769 0.645012
vt 0.897769 0.645012
vt 0.889572 0.649745
vt 0.882566 0.623599
vt 0.892032 0.623599
vt 0.892032 0.623599
vt 0.882566 0.623599
vt 0.889572 0.597453
vt 0.897769 0.602186
vt 0.897769 0.602186
vt 0.889572 0.597453
vt 0.908712 0.578313
vt 0.913445 0.586511
vt 0.913445 0.586511
vt 0.908712 0.578313
vt 0.934858 0.571307
vt 0.934858 0.580773
vt 0.934858 0.580773
vt 0.934858 0.571307
vt 0.961004 0.578313
vt 0.956271 0.586511
vt 0.956271 0.586511
vt 0.961004 0.578313
vt 0.980144 0.597453
vt 0.971947 0.602186
vt 0.971947 0.602186
vt 0.980144 0.597453
vt 0.987150 0.623599
vt 0.977684 0.623599
vt 0.977684 0.623599
vt 0.987150 0.623599
vt 0.980144 0.649745
vt 0.971947 0.645012
vt 0.971947 0.645012
vt 0.956271 0.660688
vt 0.934858 0.666425
vt 0.913445 0.660688
vt 0.897769 0.645012
vt 0.892032 0.623599
vt 0.897769 0.602186
vt 0.913445 0.586511
vt 0.934858 0.580773
vt 0.956271 0.586511
vt 0.971947 0.602186
vt 0.977684 0.623599
# num_uvs: 120

g plate
s 1

usemtl interior_props_1
f 1/1/1 2/2/2 3/3/3 4/4/4 
f 4/5/4 3/6/3 5/7/5 6/8/6 
f 6/9/6 5/10/5 7/11/7 8/12/8 
f 8/13/8 7/14/7 9/15/9 10/16/10 
f 10/17/10 9/18/9 11/19/11 12/20/12 
f 12/21/12 11/22/11 13/23/13 14/24/14 
f 14/25/14 13/26/13 15/27/15 16/28/16 
f 16/29/16 15/30/15 17/31/17 18/32/18 
f 18/33/18 17/34/17 19/35/19 20/36/20 
f 20/37/20 19/38/19 21/39/21 22/40/22 
f 22/41/22 21/42/21 23/43/23 24/44/24 
f 24/45/24 23/46/23 2/47/2 1/48/1 
f 23/49/23 21/50/21 19/51/19 17/52/17 15/53/15 13/54/13 11/55/11 9/56/9 7/57/7 5/58/5 3/59/3 2/60/2 
f 25/61/25 4/62/4 6/63/6 26/64/26 
f 26/65/26 6/66/6 8/67/8 27/68/27 
f 27/69/27 8/70/8 10/71/10 28/72/28 
f 28/73/28 10/74/10 12/75/12 29/76/29 
f 29/77/29 12/78/12 14/79/14 30/80/30 
f 30/81/30 14/82/14 16/83/16 31/84/31 
f 31/85/31 16/86/16 18/87/18 32/88/32 
f 32/89/32 18/90/18 20/91/20 33/92/33 
f 33/93/33 20/94/20 22/95/22 34/96/34 
f 34/97/34 22/98/22 24/99/24 35/100/35 
f 35/101/35 24/102/24 1/103/1 36/104/36 
f 36/105/36 1/106/1 4/107/4 25/108/25 
f 25/109/25 26/110/26 27/111/27 28/112/28 29/113/29 30/114/30 31/115/31 32/116/32 33/117/33 34/118/34 35/119/35 36/120/36 
# num_faces: 26

