# Wavefront OBJ file
# Creator: Ultimate Unwrap3D Pro v3.22
# Website: http://www.unwrap3d.com
# Time: Thu Feb 18 16:06:11 2010
# num_vertices: 60
# num_vertex_normals: 60
# num_uvs: 208
# num_faces: 52
# num_groups: 3

mtllib quill.mtl

v -0.147030 0.111960 -0.019348
v -0.147030 0.111960 0.019347
v -0.100290 0.111960 0.019347
v -0.100290 0.111960 -0.019348
v -0.069510 0.065680 -0.044823
v -0.069510 0.065680 0.044823
v -0.069510 0.000000 0.044823
v -0.069510 0.000000 -0.044823
v -0.177810 0.000000 0.044823
v -0.177810 0.000000 -0.044823
v -0.177810 0.065680 0.044823
v -0.177810 0.065680 -0.044823
v -0.078090 0.072370 0.037718
v -0.169230 0.072370 0.037718
v -0.169230 0.072370 -0.037719
v -0.078090 0.072370 -0.037719
v -0.093980 0.076910 0.024566
v -0.153340 0.076910 0.024566
v -0.153340 0.076910 -0.024567
v -0.093980 0.076910 -0.024567
v -0.094230 0.082710 0.024357
v -0.153090 0.082710 0.024357
v -0.153090 0.082710 -0.024358
v -0.094230 0.082710 -0.024358
v -0.090960 0.088260 0.027071
v -0.156370 0.088260 0.027071
v -0.156370 0.088260 -0.027072
v -0.090960 0.088260 -0.027072
v -0.093480 0.090020 0.024983
v -0.153850 0.090020 0.024983
v -0.153850 0.090020 -0.024984
v -0.093480 0.090020 -0.024984
v -0.095750 0.093300 0.023104
v -0.151580 0.093300 0.023104
v -0.151580 0.093300 -0.023105
v -0.095750 0.093300 -0.023105
v -0.095240 0.099100 0.023522
v -0.152080 0.099100 0.023522
v -0.152080 0.099100 -0.023523
v -0.095240 0.099100 -0.023523
v -0.093730 0.101870 0.024775
v -0.153590 0.101870 0.024775
v -0.153590 0.101870 -0.024776
v -0.093730 0.101870 -0.024776
v -0.095750 0.105150 0.023104
v -0.151580 0.105150 0.023104
v -0.151580 0.105150 -0.023105
v -0.095750 0.105150 -0.023105
v -0.096760 0.108180 0.022270
v -0.150570 0.108180 0.022270
v -0.150570 0.108180 -0.022270
v -0.096760 0.108180 -0.022270
v 0.032860 0.314010 -0.000141
v -0.150220 0.113150 -0.000141
v -0.066150 0.102670 -0.000141
v 0.177810 0.314010 -0.000141
v 0.032860 0.314010 -0.000141
v -0.150220 0.113150 -0.000141
v -0.066150 0.102670 -0.000141
v 0.177810 0.314010 -0.000141
# num_vertices: 60

vn -0.287923 0.905371 -0.312096
vn -0.287913 0.905392 0.312045
vn 0.288368 0.905219 0.312126
vn 0.288378 0.905198 -0.312177
vn 0.580116 0.544815 -0.605510
vn 0.580117 0.544832 0.605493
vn 0.577350 -0.577350 0.577350
vn 0.577350 -0.577350 -0.577350
vn -0.577350 -0.577350 0.577350
vn -0.577350 -0.577350 -0.577350
vn -0.580117 0.544832 0.605493
vn -0.580116 0.544815 -0.605510
vn 0.241805 0.930533 0.275025
vn -0.241805 0.930533 0.275025
vn -0.241807 0.930528 -0.275041
vn 0.241807 0.930528 -0.275041
vn 0.470690 0.733823 0.489852
vn -0.470690 0.733823 0.489852
vn -0.470691 0.733821 -0.489854
vn 0.470691 0.733821 -0.489854
vn 0.665517 -0.310414 0.678771
vn -0.665296 -0.310837 0.678794
vn -0.665296 -0.310837 -0.678794
vn 0.665516 -0.310415 -0.678771
vn 0.651641 0.289694 0.701029
vn -0.651561 0.289272 0.701277
vn -0.651560 0.289275 -0.701277
vn 0.651639 0.289697 -0.701029
vn 0.415709 0.789984 0.450679
vn -0.415709 0.789984 0.450679
vn -0.415710 0.789982 -0.450682
vn 0.415710 0.789982 -0.450682
vn 0.659295 0.328726 0.676217
vn -0.659191 0.329266 0.676055
vn -0.659191 0.329262 -0.676057
vn 0.659295 0.328721 -0.676219
vn 0.652178 -0.365488 0.664141
vn -0.652360 -0.364941 0.664263
vn -0.652360 -0.364941 -0.664263
vn 0.652178 -0.365488 -0.664141
vn 0.691982 0.035017 0.721065
vn -0.692254 0.034256 0.720840
vn -0.692254 0.034256 -0.720840
vn 0.691982 0.035017 -0.721065
vn 0.596236 0.516664 0.614460
vn -0.596687 0.516074 0.614519
vn -0.596666 0.516155 -0.614470
vn 0.596215 0.516746 -0.614411
vn 0.547216 0.611163 0.571869
vn -0.546883 0.611479 0.571850
vn -0.546863 0.611511 -0.571835
vn 0.547195 0.611195 -0.571855
vn 0.000000 0.000000 1.000000
vn 0.000000 0.000000 1.000000
vn 0.000000 0.000000 1.000000
vn 0.000000 0.000000 1.000000
vn 0.000000 0.000000 -1.000000
vn 0.000000 0.000000 -1.000000
vn 0.000000 0.000000 -1.000000
vn 0.000000 0.000000 -1.000000
# num_vertex_normals: 60

vt 0.186328 0.364211
vt 0.186328 0.281437
vt 0.286328 0.281437
vt 0.286328 0.364211
vt 0.340934 0.269650
vt 0.132750 0.269650
vt 0.132750 0.117122
vt 0.340934 0.117122
vt 0.309118 0.251022
vt 0.309118 0.135138
vt 0.169118 0.135138
vt 0.169118 0.251022
vt 0.340934 0.117122
vt 0.132750 0.117122
vt 0.132750 0.269650
vt 0.340934 0.269650
vt 0.106252 0.105954
vt 0.106252 0.264348
vt 0.367433 0.264348
vt 0.367433 0.105954
vt 0.367433 0.105954
vt 0.367433 0.264348
vt 0.106252 0.264348
vt 0.106252 0.105954
vt 0.367433 0.264348
vt 0.346731 0.280465
vt 0.126952 0.280465
vt 0.106252 0.264348
vt 0.132750 0.269650
vt 0.149250 0.285170
vt 0.324434 0.285170
vt 0.340934 0.269650
vt 0.106252 0.264348
vt 0.126952 0.280465
vt 0.346731 0.280465
vt 0.367433 0.264348
vt 0.340934 0.269650
vt 0.324434 0.285170
vt 0.149250 0.285170
vt 0.132750 0.269650
vt 0.346731 0.280465
vt 0.308415 0.291413
vt 0.165269 0.291413
vt 0.126952 0.280465
vt 0.149250 0.285170
vt 0.179793 0.295712
vt 0.293892 0.295712
vt 0.324434 0.285170
vt 0.126952 0.280465
vt 0.165269 0.291413
vt 0.308415 0.291413
vt 0.346731 0.280465
vt 0.324434 0.285170
vt 0.293892 0.295712
vt 0.179793 0.295712
vt 0.149250 0.285170
vt 0.308415 0.291413
vt 0.307807 0.305402
vt 0.165877 0.305402
vt 0.165269 0.291413
vt 0.179793 0.295712
vt 0.180277 0.309183
vt 0.293407 0.309183
vt 0.293892 0.295712
vt 0.165269 0.291413
vt 0.165877 0.305402
vt 0.307807 0.305402
vt 0.308415 0.291413
vt 0.293892 0.295712
vt 0.293407 0.309183
vt 0.180277 0.309183
vt 0.179793 0.295712
vt 0.307807 0.305402
vt 0.315713 0.318783
vt 0.157970 0.318783
vt 0.165877 0.305402
vt 0.180277 0.309183
vt 0.173975 0.322068
vt 0.299709 0.322068
vt 0.293407 0.309183
vt 0.165877 0.305402
vt 0.157970 0.318783
vt 0.315713 0.318783
vt 0.307807 0.305402
vt 0.293407 0.309183
vt 0.299709 0.322068
vt 0.173975 0.322068
vt 0.180277 0.309183
vt 0.315713 0.318783
vt 0.309631 0.323040
vt 0.164052 0.323040
vt 0.157970 0.318783
vt 0.173975 0.322068
vt 0.178823 0.326168
vt 0.294861 0.326168
vt 0.299709 0.322068
vt 0.157970 0.318783
vt 0.164052 0.323040
vt 0.309631 0.323040
vt 0.315713 0.318783
vt 0.299709 0.322068
vt 0.294861 0.326168
vt 0.178823 0.326168
vt 0.173975 0.322068
vt 0.309631 0.323040
vt 0.304157 0.330946
vt 0.169526 0.330946
vt 0.164052 0.323040
vt 0.178823 0.326168
vt 0.183186 0.333781
vt 0.290498 0.333781
vt 0.294861 0.326168
vt 0.164052 0.323040
vt 0.169526 0.330946
vt 0.304157 0.330946
vt 0.309631 0.323040
vt 0.294861 0.326168
vt 0.290498 0.333781
vt 0.183186 0.333781
vt 0.178823 0.326168
vt 0.304157 0.330946
vt 0.305373 0.344935
vt 0.168310 0.344935
vt 0.169526 0.330946
vt 0.183186 0.333781
vt 0.182217 0.347252
vt 0.291468 0.347252
vt 0.290498 0.333781
vt 0.169526 0.330946
vt 0.168310 0.344935
vt 0.305373 0.344935
vt 0.304157 0.330946
vt 0.290498 0.333781
vt 0.291468 0.347252
vt 0.182217 0.347252
vt 0.183186 0.333781
vt 0.305373 0.344935
vt 0.309023 0.351625
vt 0.164661 0.351625
vt 0.168310 0.344935
vt 0.182217 0.347252
vt 0.179308 0.353694
vt 0.294377 0.353694
vt 0.291468 0.347252
vt 0.168310 0.344935
vt 0.164661 0.351625
vt 0.309023 0.351625
vt 0.305373 0.344935
vt 0.291468 0.347252
vt 0.294377 0.353694
vt 0.179308 0.353694
vt 0.182217 0.347252
vt 0.309023 0.351625
vt 0.304157 0.359532
vt 0.169526 0.359532
vt 0.164661 0.351625
vt 0.179308 0.353694
vt 0.183186 0.361308
vt 0.290498 0.361308
vt 0.294377 0.353694
vt 0.164661 0.351625
vt 0.169526 0.359532
vt 0.304157 0.359532
vt 0.309023 0.351625
vt 0.294377 0.353694
vt 0.290498 0.361308
vt 0.183186 0.361308
vt 0.179308 0.353694
vt 0.304157 0.359532
vt 0.301725 0.366831
vt 0.171959 0.366831
vt 0.169526 0.359532
vt 0.183186 0.361308
vt 0.185125 0.368336
vt 0.288559 0.368336
vt 0.290498 0.361308
vt 0.169526 0.359532
vt 0.171959 0.366831
vt 0.301725 0.366831
vt 0.304157 0.359532
vt 0.290498 0.361308
vt 0.288559 0.368336
vt 0.185125 0.368336
vt 0.183186 0.361308
vt 0.301725 0.366831
vt 0.293210 0.375954
vt 0.180475 0.375954
vt 0.171959 0.366831
vt 0.185125 0.368336
vt 0.191912 0.377122
vt 0.281772 0.377122
vt 0.288559 0.368336
vt 0.171959 0.366831
vt 0.180475 0.375954
vt 0.293210 0.375954
vt 0.301725 0.366831
vt 0.288559 0.368336
vt 0.281772 0.377122
vt 0.191912 0.377122
vt 0.185125 0.368336
vt 0.650426 0.925119
vt 0.161577 0.380243
vt 0.417844 0.348318
vt 1.092330 0.925119
vt 1.092330 0.925119
vt 0.417844 0.348318
vt 0.161577 0.380243
vt 0.650426 0.925119
# num_uvs: 208

g Group2_ink
s 1

usemtl quill
f 1/1/1 2/2/2 3/3/3 4/4/4 
f 5/5/5 6/6/6 7/7/7 8/8/8 
f 8/9/8 7/10/7 9/11/9 10/12/10 
f 10/13/10 9/14/9 11/15/11 12/16/12 
f 10/17/10 12/18/12 5/19/5 8/20/8 
f 7/21/7 6/22/6 11/23/11 9/24/9 
f 6/25/6 13/26/13 14/27/14 11/28/11 
f 11/29/11 14/30/14 15/31/15 12/32/12 
f 12/33/12 15/34/15 16/35/16 5/36/5 
f 5/37/5 16/38/16 13/39/13 6/40/6 
f 13/41/13 17/42/17 18/43/18 14/44/14 
f 14/45/14 18/46/18 19/47/19 15/48/15 
f 15/49/15 19/50/19 20/51/20 16/52/16 
f 16/53/16 20/54/20 17/55/17 13/56/13 
f 17/57/17 21/58/21 22/59/22 18/60/18 
f 18/61/18 22/62/22 23/63/23 19/64/19 
f 19/65/19 23/66/23 24/67/24 20/68/20 
f 20/69/20 24/70/24 21/71/21 17/72/17 
f 21/73/21 25/74/25 26/75/26 22/76/22 
f 22/77/22 26/78/26 27/79/27 23/80/23 
f 23/81/23 27/82/27 28/83/28 24/84/24 
f 24/85/24 28/86/28 25/87/25 21/88/21 
f 25/89/25 29/90/29 30/91/30 26/92/26 
f 26/93/26 30/94/30 31/95/31 27/96/27 
f 27/97/27 31/98/31 32/99/32 28/100/28 
f 28/101/28 32/102/32 29/103/29 25/104/25 
f 29/105/29 33/106/33 34/107/34 30/108/30 
f 30/109/30 34/110/34 35/111/35 31/112/31 
f 31/113/31 35/114/35 36/115/36 32/116/32 
f 32/117/32 36/118/36 33/119/33 29/120/29 
f 33/121/33 37/122/37 38/123/38 34/124/34 
f 34/125/34 38/126/38 39/127/39 35/128/35 
f 35/129/35 39/130/39 40/131/40 36/132/36 
f 36/133/36 40/134/40 37/135/37 33/136/33 
f 37/137/37 41/138/41 42/139/42 38/140/38 
f 38/141/38 42/142/42 43/143/43 39/144/39 
f 39/145/39 43/146/43 44/147/44 40/148/40 
f 40/149/40 44/150/44 41/151/41 37/152/37 
f 41/153/41 45/154/45 46/155/46 42/156/42 
f 42/157/42 46/158/46 47/159/47 43/160/43 
f 43/161/43 47/162/47 48/163/48 44/164/44 
f 44/165/44 48/166/48 45/167/45 41/168/41 
f 45/169/45 49/170/49 50/171/50 46/172/46 
f 46/173/46 50/174/50 51/175/51 47/176/47 
f 47/177/47 51/178/51 52/179/52 48/180/48 
f 48/181/48 52/182/52 49/183/49 45/184/45 
f 49/185/49 3/186/3 2/187/2 50/188/50 
f 50/189/50 2/190/2 1/191/1 51/192/51 
f 51/193/51 1/194/1 4/195/4 52/196/52 
f 52/197/52 4/198/4 3/199/3 49/200/49 
# num_faces: 50

g Group2_quill
s 2

usemtl quill
f 53/201/53 54/202/54 55/203/55 56/204/56 
# num_faces: 1

g Group2_TwoSided
s 3

usemtl quill
f 60/205/60 59/206/59 58/207/58 57/208/57 
# num_faces: 1

