# Wavefront OBJ file
# Creator: Ultimate Unwrap3D Pro v3.22
# Website: http://www.unwrap3d.com
# Time: Thu Feb 18 16:06:46 2010
# num_vertices: 25
# num_vertex_normals: 25
# num_uvs: 64
# num_faces: 16
# num_groups: 1

mtllib rug1.mtl

v -1.632753 0.000000 -1.005010
v 1.632753 0.000000 -1.005010
v -1.632753 0.000000 0.947050
v 1.632753 0.000000 0.947050
v -0.913260 0.000000 -1.005010
v -0.913260 0.007674 1.005010
v -0.045128 0.000000 -0.963700
v -0.045128 0.007674 0.947050
v 0.871782 0.000000 -1.005010
v 0.871782 0.007674 0.978760
v -1.632753 0.000000 -0.757610
v -0.913260 0.007674 -0.757610
v -0.045128 0.007674 -0.757610
v 0.871782 0.007674 -0.757610
v 1.607123 0.000000 -0.757610
v -1.588515 0.002526 -0.120450
v -0.913260 0.010201 -0.120450
v -0.045128 0.010201 -0.120450
v 0.871782 0.010201 -0.120450
v 1.632753 0.002526 -0.120450
v -1.632753 0.000000 0.416040
v -0.913260 0.007674 0.416040
v -0.045128 0.007674 0.416040
v 0.871782 0.007674 0.416040
v 1.587793 0.000000 0.416040
# num_vertices: 25

vn 0.000000 1.000000 0.000000
vn 0.010436 0.999945 0.001081
vn -0.010666 0.999943 0.000000
vn 0.010084 0.999949 0.000000
vn 0.000000 0.999827 -0.018609
vn -0.005333 0.999986 0.000000
vn 0.000000 0.999418 -0.034108
vn 0.000000 1.000000 0.000000
vn 0.005219 0.999874 -0.014964
vn 0.005042 0.999987 0.000000
vn -0.005333 0.999985 -0.001612
vn -0.002667 0.999935 -0.011102
vn 0.000000 0.999819 -0.019039
vn 0.005130 0.999941 -0.009566
vn 0.010260 0.999946 -0.001645
vn -0.011015 0.999939 0.000274
vn -0.005507 0.999985 0.000323
vn 0.000000 1.000000 0.000372
vn 0.005200 0.999986 0.000495
vn 0.010401 0.999946 0.000618
vn -0.011015 0.999938 0.001886
vn -0.005507 0.999983 0.002120
vn 0.000000 0.999997 0.002355
vn 0.005200 0.999983 0.002579
vn 0.010401 0.999942 0.002804
# num_vertex_normals: 25

vt 0.634940 0.945363
vt 0.634119 0.908703
vt 0.668234 0.908703
vt 0.668693 0.945363
vt 0.711893 0.908703
vt 0.711916 0.947759
vt 0.668693 0.945363
vt 0.668234 0.908703
vt 0.758006 0.908703
vt 0.757567 0.945363
vt 0.711916 0.947759
vt 0.711893 0.908703
vt 0.792918 0.908703
vt 0.793385 0.945363
vt 0.757567 0.945363
vt 0.758006 0.908703
vt 0.634119 0.908703
vt 0.636344 0.789511
vt 0.668234 0.789511
vt 0.668234 0.908703
vt 0.711893 0.789511
vt 0.711893 0.908703
vt 0.668234 0.908703
vt 0.668234 0.789511
vt 0.758006 0.789511
vt 0.758006 0.908703
vt 0.711893 0.908703
vt 0.711893 0.789511
vt 0.794206 0.789511
vt 0.792918 0.908703
vt 0.758006 0.908703
vt 0.758006 0.789511
vt 0.636344 0.789511
vt 0.634119 0.689150
vt 0.668234 0.689150
vt 0.668234 0.789511
vt 0.634119 0.689150
vt 0.635761 0.585099
vt 0.669152 0.583689
vt 0.668234 0.689150
vt 0.669152 0.583689
vt 0.711939 0.585099
vt 0.711893 0.689150
vt 0.668234 0.689150
vt 0.711893 0.689150
vt 0.711893 0.789511
vt 0.668234 0.789511
vt 0.668234 0.689150
vt 0.711939 0.585099
vt 0.757129 0.584328
vt 0.758006 0.689150
vt 0.711893 0.689150
vt 0.758006 0.689150
vt 0.758006 0.789511
vt 0.711893 0.789511
vt 0.711893 0.689150
vt 0.757129 0.584328
vt 0.792564 0.585099
vt 0.791945 0.689150
vt 0.758006 0.689150
vt 0.791945 0.689150
vt 0.794206 0.789511
vt 0.758006 0.789511
vt 0.758006 0.689150
# num_uvs: 64

g rug1
s 1

usemtl interior_props_2
f 1/1/1 11/2/11 12/3/12 5/4/5 
f 13/5/13 7/6/7 5/7/5 12/8/12 
f 14/9/14 9/10/9 7/11/7 13/12/13 
f 15/13/15 2/14/2 9/15/9 14/16/14 
f 11/17/11 16/18/16 17/19/17 12/20/12 
f 18/21/18 13/22/13 12/23/12 17/24/17 
f 19/25/19 14/26/14 13/27/13 18/28/18 
f 20/29/20 15/30/15 14/31/14 19/32/19 
f 16/33/16 21/34/21 22/35/22 17/36/17 
f 21/37/21 3/38/3 6/39/6 22/40/22 
f 6/41/6 8/42/8 23/43/23 22/44/22 
f 23/45/23 18/46/18 17/47/17 22/48/22 
f 8/49/8 10/50/10 24/51/24 23/52/23 
f 24/53/24 19/54/19 18/55/18 23/56/23 
f 10/57/10 4/58/4 25/59/25 24/60/24 
f 25/61/25 20/62/20 19/63/19 24/64/24 
# num_faces: 16

