# Wavefront OBJ file
# Creator: Ultimate Unwrap3D Pro v3.22
# Website: http://www.unwrap3d.com
# Time: Thu Feb 18 16:08:21 2010
# num_vertices: 25
# num_vertex_normals: 25
# num_uvs: 64
# num_faces: 16
# num_groups: 1

mtllib rug4.mtl

v -1.971463 0.000000 -1.213495
v 1.971463 0.000000 -1.213495
v -1.971463 0.000000 1.143515
v 1.971463 0.000000 1.143515
v -1.102715 0.000000 -1.213495
v -1.102715 0.009266 1.213495
v -0.054487 0.000000 -1.163615
v -0.054487 0.009266 1.143515
v 1.052633 0.000000 -1.213495
v 1.052633 0.009266 1.181805
v -1.971463 0.000000 -0.914765
v -1.102715 0.009266 -0.914765
v -0.054487 0.009266 -0.914765
v 1.052633 0.009266 -0.914765
v 1.940523 0.000000 -0.914765
v -1.918048 0.003051 -0.145435
v -1.102715 0.012317 -0.145435
v -0.054487 0.012317 -0.145435
v 1.052633 0.012317 -0.145435
v 1.971463 0.003051 -0.145435
v -1.971463 0.000000 0.502355
v -1.102715 0.009266 0.502355
v -0.054487 0.009266 0.502355
v 1.052633 0.009266 0.502355
v 1.917173 0.000000 0.502355
# num_vertices: 25

vn 0.000000 1.000000 0.000000
vn 0.010436 0.999945 0.001081
vn -0.010665 0.999943 0.000000
vn 0.010084 0.999949 0.000000
vn 0.000000 0.999827 -0.018608
vn -0.005333 0.999986 0.000000
vn 0.000000 0.999418 -0.034107
vn 0.000000 1.000000 0.000000
vn 0.005219 0.999874 -0.014963
vn 0.005042 0.999987 0.000000
vn -0.005333 0.999985 -0.001612
vn -0.002667 0.999935 -0.011101
vn 0.000000 0.999819 -0.019038
vn 0.005130 0.999941 -0.009565
vn 0.010260 0.999946 -0.001645
vn -0.011015 0.999939 0.000274
vn -0.005507 0.999985 0.000323
vn 0.000000 1.000000 0.000372
vn 0.005200 0.999986 0.000495
vn 0.010401 0.999946 0.000618
vn -0.011015 0.999938 0.001886
vn -0.005507 0.999983 0.002120
vn 0.000000 0.999997 0.002355
vn 0.005200 0.999983 0.002579
vn 0.010401 0.999942 0.002804
# num_vertex_normals: 25

vt 0.026545 0.228639
vt 0.025435 0.206358
vt 0.071545 0.206358
vt 0.072166 0.228639
vt 0.130557 0.206358
vt 0.130588 0.230095
vt 0.072166 0.228639
vt 0.071545 0.206358
vt 0.192884 0.206358
vt 0.192291 0.228639
vt 0.130588 0.230095
vt 0.130557 0.206358
vt 0.240072 0.206358
vt 0.240704 0.228639
vt 0.192291 0.228639
vt 0.192884 0.206358
vt 0.025435 0.206358
vt 0.028442 0.133919
vt 0.071545 0.133919
vt 0.071545 0.206358
vt 0.130557 0.133919
vt 0.130557 0.206358
vt 0.071545 0.206358
vt 0.071545 0.133919
vt 0.192884 0.133919
vt 0.192884 0.206358
vt 0.130557 0.206358
vt 0.130557 0.133919
vt 0.241814 0.133919
vt 0.240072 0.206358
vt 0.192884 0.206358
vt 0.192884 0.133919
vt 0.028442 0.133919
vt 0.025435 0.072925
vt 0.071545 0.072925
vt 0.071545 0.133919
vt 0.025435 0.072925
vt 0.027655 0.009688
vt 0.072787 0.008831
vt 0.071545 0.072925
vt 0.072787 0.008831
vt 0.130618 0.009688
vt 0.130557 0.072925
vt 0.071545 0.072925
vt 0.130557 0.072925
vt 0.130557 0.133919
vt 0.071545 0.133919
vt 0.071545 0.072925
vt 0.130618 0.009688
vt 0.191699 0.009219
vt 0.192884 0.072925
vt 0.130557 0.072925
vt 0.192884 0.072925
vt 0.192884 0.133919
vt 0.130557 0.133919
vt 0.130557 0.072925
vt 0.191699 0.009219
vt 0.239594 0.009688
vt 0.238758 0.072925
vt 0.192884 0.072925
vt 0.238758 0.072925
vt 0.241814 0.133919
vt 0.192884 0.133919
vt 0.192884 0.072925
# num_uvs: 64

g rug4
s 1

usemtl interior_props_2
f 1/1/1 11/2/11 12/3/12 5/4/5 
f 13/5/13 7/6/7 5/7/5 12/8/12 
f 14/9/14 9/10/9 7/11/7 13/12/13 
f 15/13/15 2/14/2 9/15/9 14/16/14 
f 11/17/11 16/18/16 17/19/17 12/20/12 
f 18/21/18 13/22/13 12/23/12 17/24/17 
f 19/25/19 14/26/14 13/27/13 18/28/18 
f 20/29/20 15/30/15 14/31/14 19/32/19 
f 16/33/16 21/34/21 22/35/22 17/36/17 
f 21/37/21 3/38/3 6/39/6 22/40/22 
f 6/41/6 8/42/8 23/43/23 22/44/22 
f 23/45/23 18/46/18 17/47/17 22/48/22 
f 8/49/8 10/50/10 24/51/24 23/52/23 
f 24/53/24 19/54/19 18/55/18 23/56/23 
f 10/57/10 4/58/4 25/59/25 24/60/24 
f 25/61/25 20/62/20 19/63/19 24/64/24 
# num_faces: 16

