# Wavefront OBJ file
# Creator: Ultimate Unwrap3D Pro v3.22
# Website: http://www.unwrap3d.com
# Time: Thu Feb 18 16:12:50 2010
# num_vertices: 16
# num_vertex_normals: 16
# num_uvs: 56
# num_faces: 14
# num_groups: 1

mtllib wallpicture3.mtl

v -0.525965 0.832890 -0.017550
v 0.525965 0.832890 -0.017550
v 0.525965 0.000000 -0.017550
v -0.525965 0.000000 -0.017550
v -0.525965 0.832890 0.018150
v 0.525965 0.832890 0.018150
v 0.525965 0.000000 0.018150
v -0.525965 0.000000 0.018150
v -0.375525 0.682450 0.018150
v -0.375525 0.150440 0.018150
v 0.375525 0.150440 0.018150
v 0.375525 0.682450 0.018150
v -0.375525 0.150440 -0.018150
v -0.375525 0.682450 -0.018150
v 0.375525 0.682450 -0.018150
v 0.375525 0.150440 -0.018150
# num_vertices: 16

vn -0.577350 0.577350 -0.577350
vn 0.577350 0.577350 -0.577350
vn 0.577350 -0.577350 -0.577350
vn -0.577350 -0.577350 -0.577350
vn -0.408248 0.408248 0.816497
vn 0.408248 0.408248 0.816497
vn 0.408248 -0.408248 0.816497
vn -0.408248 -0.408248 0.816497
vn 0.408248 -0.408248 0.816497
vn 0.408248 0.408248 0.816497
vn -0.408248 0.408248 0.816497
vn -0.408248 -0.408248 0.816497
vn 0.577350 0.577350 0.577350
vn 0.577350 -0.577350 0.577350
vn -0.577350 -0.577350 0.577350
vn -0.577350 0.577350 0.577350
# num_vertex_normals: 16

vt 0.304250 0.816562
vt 0.302597 0.818197
vt 0.422852 0.818197
vt 0.421199 0.816562
vt 0.421199 0.816562
vt 0.422852 0.818197
vt 0.422852 0.721689
vt 0.421199 0.723324
vt 0.421199 0.723324
vt 0.422852 0.721689
vt 0.302597 0.721689
vt 0.304250 0.723324
vt 0.304250 0.723324
vt 0.302597 0.721689
vt 0.302597 0.818197
vt 0.304250 0.816562
vt 0.304250 0.723324
vt 0.304250 0.816562
vt 0.421199 0.816562
vt 0.421199 0.723324
vt 0.316325 0.805430
vt 0.302597 0.818197
vt 0.302597 0.721689
vt 0.316325 0.734867
vt 0.316325 0.734867
vt 0.302597 0.721689
vt 0.422852 0.721689
vt 0.411777 0.734867
vt 0.411777 0.734867
vt 0.422852 0.721689
vt 0.422852 0.818197
vt 0.411777 0.805430
vt 0.411777 0.805430
vt 0.422852 0.818197
vt 0.302597 0.818197
vt 0.316325 0.805430
vt 0.317413 0.803630
vt 0.317413 0.736256
vt 0.410894 0.736256
vt 0.410894 0.803630
vt 0.316325 0.805430
vt 0.316325 0.734867
vt 0.315357 0.734406
vt 0.315357 0.805891
vt 0.411777 0.805430
vt 0.316325 0.805430
vt 0.315357 0.805891
vt 0.412744 0.805891
vt 0.316325 0.734867
vt 0.411777 0.734867
vt 0.412744 0.734406
vt 0.315357 0.734406
vt 0.411777 0.734867
vt 0.411777 0.805430
vt 0.412744 0.805891
vt 0.412744 0.734406
# num_uvs: 56

g wallpicture3
s 1

usemtl interior_props_1
f 1/1/1 5/2/5 6/3/6 2/4/2 
f 2/5/2 6/6/6 7/7/7 3/8/3 
f 3/9/3 7/10/7 8/11/8 4/12/4 
f 4/13/4 8/14/8 5/15/5 1/16/1 
f 4/17/4 1/18/1 2/19/2 3/20/3 
f 9/21/9 5/22/5 8/23/8 10/24/10 
f 10/25/10 8/26/8 7/27/7 11/28/11 
f 11/29/11 7/30/7 6/31/6 12/32/12 
f 12/33/12 6/34/6 5/35/5 9/36/9 
f 14/37/14 13/38/13 16/39/16 15/40/15 
f 9/41/9 10/42/10 13/43/13 14/44/14 
f 12/45/12 9/46/9 14/47/14 15/48/15 
f 10/49/10 11/50/11 16/51/16 13/52/13 
f 11/53/11 12/54/12 15/55/15 16/56/16 
# num_faces: 14

