# Wavefront OBJ file
# Creator: Ultimate Unwrap3D Pro v3.22
# Website: http://www.unwrap3d.com
# Time: Thu Feb 18 16:13:23 2010
# num_vertices: 16
# num_vertex_normals: 16
# num_uvs: 56
# num_faces: 14
# num_groups: 1

mtllib wallpicture4.mtl

v -0.390520 0.940330 -0.031040
v 0.390520 0.940330 -0.031040
v 0.390520 0.000000 -0.031040
v -0.390520 0.000000 -0.031040
v -0.390520 0.940330 0.031040
v 0.390520 0.940330 0.031040
v 0.390520 0.000000 0.031040
v -0.390520 0.000000 0.031040
v -0.216450 0.766260 0.031040
v -0.216450 0.174080 0.031040
v 0.216440 0.174080 0.031040
v 0.216440 0.766260 0.031040
v -0.216450 0.174080 0.000910
v -0.216450 0.766260 0.000910
v 0.216440 0.766260 0.000910
v 0.216440 0.174080 0.000910
# num_vertices: 16

vn -0.577350 0.577350 -0.577350
vn 0.577350 0.577350 -0.577350
vn 0.577350 -0.577350 -0.577350
vn -0.577350 -0.577350 -0.577350
vn -0.408248 0.408248 0.816497
vn 0.408248 0.408248 0.816497
vn 0.408248 -0.408248 0.816497
vn -0.408248 -0.408248 0.816497
vn 0.408248 -0.408248 0.816497
vn 0.408248 0.408248 0.816497
vn -0.408248 0.408248 0.816497
vn -0.408248 -0.408248 0.816497
vn 0.577350 0.577350 0.577350
vn 0.577350 -0.577350 0.577350
vn -0.577350 -0.577350 0.577350
vn -0.577350 0.577350 0.577350
# num_vertex_normals: 16

vt 0.320419 0.366510
vt 0.317872 0.368859
vt 0.425845 0.369123
vt 0.423299 0.366775
vt 0.423299 0.366775
vt 0.425845 0.369123
vt 0.425845 0.242202
vt 0.423299 0.244550
vt 0.423299 0.244550
vt 0.425845 0.242202
vt 0.317872 0.241938
vt 0.320419 0.244286
vt 0.320419 0.244286
vt 0.317872 0.241938
vt 0.317872 0.368859
vt 0.320419 0.366510
vt 0.320419 0.244286
vt 0.320419 0.366510
vt 0.423299 0.366775
vt 0.423299 0.244550
vt 0.340664 0.346855
vt 0.317872 0.368859
vt 0.317872 0.241938
vt 0.340664 0.263149
vt 0.340664 0.263149
vt 0.317872 0.241938
vt 0.425845 0.242202
vt 0.403317 0.263149
vt 0.403317 0.263149
vt 0.425845 0.242202
vt 0.425845 0.369123
vt 0.403317 0.346855
vt 0.403317 0.346855
vt 0.425845 0.369123
vt 0.317872 0.368859
vt 0.340664 0.346855
vt 0.342227 0.345587
vt 0.342227 0.265209
vt 0.403074 0.265209
vt 0.403074 0.345587
vt 0.340664 0.346855
vt 0.340664 0.263149
vt 0.339850 0.262040
vt 0.339850 0.347964
vt 0.403317 0.346855
vt 0.340664 0.346855
vt 0.339850 0.347964
vt 0.404131 0.347964
vt 0.340664 0.263149
vt 0.403317 0.263149
vt 0.404131 0.262040
vt 0.339850 0.262040
vt 0.403317 0.263149
vt 0.403317 0.346855
vt 0.404131 0.347964
vt 0.404131 0.262040
# num_uvs: 56

g wallpicture4
s 1

usemtl interior_props_1
f 1/1/1 5/2/5 6/3/6 2/4/2 
f 2/5/2 6/6/6 7/7/7 3/8/3 
f 3/9/3 7/10/7 8/11/8 4/12/4 
f 4/13/4 8/14/8 5/15/5 1/16/1 
f 4/17/4 1/18/1 2/19/2 3/20/3 
f 9/21/9 5/22/5 8/23/8 10/24/10 
f 10/25/10 8/26/8 7/27/7 11/28/11 
f 11/29/11 7/30/7 6/31/6 12/32/12 
f 12/33/12 6/34/6 5/35/5 9/36/9 
f 14/37/14 13/38/13 16/39/16 15/40/15 
f 9/41/9 10/42/10 13/43/13 14/44/14 
f 12/45/12 9/46/9 14/47/14 15/48/15 
f 10/49/10 11/50/11 16/51/16 13/52/13 
f 11/53/11 12/54/12 15/55/15 16/56/16 
# num_faces: 14

